%TF.GenerationSoftware,KiCad,Pcbnew,(6.0.7)*%
%TF.CreationDate,2023-02-20T15:38:16+01:00*%
%TF.ProjectId,Soundboard,536f756e-6462-46f6-9172-642e6b696361,rev?*%
%TF.SameCoordinates,Original*%
%TF.FileFunction,Soldermask,Bot*%
%TF.FilePolarity,Negative*%
%FSLAX46Y46*%
G04 Gerber Fmt 4.6, Leading zero omitted, Abs format (unit mm)*
G04 Created by KiCad (PCBNEW (6.0.7)) date 2023-02-20 15:38:16*
%MOMM*%
%LPD*%
G01*
G04 APERTURE LIST*
%ADD10C,1.750000*%
%ADD11C,3.987800*%
%ADD12C,2.300000*%
%ADD13C,2.200000*%
%ADD14C,0.650000*%
%ADD15O,1.200000X2.250000*%
G04 APERTURE END LIST*
D10*
%TO.C,SW1*%
X42545000Y-35560000D03*
D11*
X37465000Y-35560000D03*
D10*
X32385000Y-35560000D03*
D12*
X33655000Y-33020000D03*
X40005000Y-30480000D03*
%TD*%
D10*
%TO.C,SW6*%
X42545000Y-55245000D03*
X32385000Y-55245000D03*
D11*
X37465000Y-55245000D03*
D12*
X33655000Y-52705000D03*
X40005000Y-50165000D03*
%TD*%
D11*
%TO.C,SW2*%
X57150000Y-35560000D03*
D10*
X52070000Y-35560000D03*
X62230000Y-35560000D03*
D12*
X53340000Y-33020000D03*
X59690000Y-30480000D03*
%TD*%
D10*
%TO.C,SW5*%
X111125000Y-35560000D03*
D11*
X116205000Y-35560000D03*
D10*
X121285000Y-35560000D03*
D12*
X112395000Y-33020000D03*
X118745000Y-30480000D03*
%TD*%
D10*
%TO.C,SW14*%
X101600000Y-74930000D03*
D11*
X96520000Y-74930000D03*
D10*
X91440000Y-74930000D03*
D12*
X92710000Y-72390000D03*
X99060000Y-69850000D03*
%TD*%
D13*
%TO.C,REFM4*%
X150495000Y-82550000D03*
%TD*%
%TO.C,REFM2*%
X150495000Y-27940000D03*
%TD*%
%TO.C,REFM1*%
X22225000Y-27940000D03*
%TD*%
D10*
%TO.C,SW8*%
X71755000Y-55245000D03*
D11*
X76835000Y-55245000D03*
D10*
X81915000Y-55245000D03*
D12*
X73025000Y-52705000D03*
X79375000Y-50165000D03*
%TD*%
D10*
%TO.C,SW9*%
X101600000Y-55245000D03*
D11*
X96520000Y-55245000D03*
D10*
X91440000Y-55245000D03*
D12*
X92710000Y-52705000D03*
X99060000Y-50165000D03*
%TD*%
D11*
%TO.C,SW15*%
X116205000Y-74930000D03*
D10*
X111125000Y-74930000D03*
X121285000Y-74930000D03*
D12*
X112395000Y-72390000D03*
X118745000Y-69850000D03*
%TD*%
D10*
%TO.C,SW12*%
X62230000Y-74930000D03*
D11*
X57150000Y-74930000D03*
D10*
X52070000Y-74930000D03*
D12*
X53340000Y-72390000D03*
X59690000Y-69850000D03*
%TD*%
D10*
%TO.C,SW13*%
X71755000Y-74930000D03*
X81915000Y-74930000D03*
D11*
X76835000Y-74930000D03*
D12*
X73025000Y-72390000D03*
X79375000Y-69850000D03*
%TD*%
D10*
%TO.C,SW4*%
X91440000Y-35560000D03*
X101600000Y-35560000D03*
D11*
X96520000Y-35560000D03*
D12*
X92710000Y-33020000D03*
X99060000Y-30480000D03*
%TD*%
D14*
%TO.C,J1*%
X137210000Y-29272500D03*
X144710000Y-29272500D03*
D15*
X146555000Y-24592500D03*
X146535000Y-29192500D03*
X135385000Y-29192500D03*
X135405000Y-24592500D03*
%TD*%
D11*
%TO.C,SW11*%
X37465000Y-74930000D03*
D10*
X42545000Y-74930000D03*
X32385000Y-74930000D03*
D12*
X33655000Y-72390000D03*
X40005000Y-69850000D03*
%TD*%
D10*
%TO.C,SW10*%
X111125000Y-55245000D03*
X121285000Y-55245000D03*
D11*
X116205000Y-55245000D03*
D12*
X112395000Y-52705000D03*
X118745000Y-50165000D03*
%TD*%
D11*
%TO.C,SW7*%
X57150000Y-55245000D03*
D10*
X62230000Y-55245000D03*
X52070000Y-55245000D03*
D12*
X53340000Y-52705000D03*
X59690000Y-50165000D03*
%TD*%
D10*
%TO.C,SW3*%
X81915000Y-35560000D03*
X71755000Y-35560000D03*
D11*
X76835000Y-35560000D03*
D12*
X73025000Y-33020000D03*
X79375000Y-30480000D03*
%TD*%
D13*
%TO.C,REFM3*%
X22225000Y-82550000D03*
%TD*%
M02*
