M48
; DRILL file {KiCad (6.0.7)} date Mon Feb 20 15:38:46 2023
; FORMAT={-:-/ absolute / metric / decimal}
; #@! TF.CreationDate,2023-02-20T15:38:46+01:00
; #@! TF.GenerationSoftware,Kicad,Pcbnew,(6.0.7)
; #@! TF.FileFunction,Plated,1,2,PTH
FMAT,2
METRIC
; #@! TA.AperFunction,Plated,PTH,ViaDrill
T1C0.400
; #@! TA.AperFunction,Plated,PTH,ComponentDrill
T2C0.600
; #@! TA.AperFunction,Plated,PTH,ComponentDrill
T3C1.524
%
G90
G05
T1
X135.255Y-33.655
X135.255Y-67.945
X135.255Y-69.215
X135.255Y-70.485
X135.255Y-71.755
X135.255Y-73.025
X135.89Y-55.245
X135.98Y-65.95
X137.795Y-33.02
X137.795Y-68.325
X137.795Y-76.2
X139.934Y-33.02
X140.97Y-61.595
X141.605Y-32.385
X142.24Y-78.105
X143.51Y-32.385
X143.51Y-79.375
X144.78Y-32.385
X144.78Y-40.005
X145.415Y-61.595
X147.955Y-61.595
X149.225Y-33.655
X150.177Y-77.153
X151.765Y-33.655
X152.4Y-64.135
X153.67Y-64.135
X153.67Y-74.93
T3
X33.655Y-33.02
X33.655Y-52.705
X33.655Y-72.39
X40.005Y-30.48
X40.005Y-50.165
X40.005Y-69.85
X53.34Y-33.02
X53.34Y-52.705
X53.34Y-72.39
X59.69Y-30.48
X59.69Y-50.165
X59.69Y-69.85
X73.025Y-33.02
X73.025Y-52.705
X73.025Y-72.39
X79.375Y-30.48
X79.375Y-50.165
X79.375Y-69.85
X92.71Y-33.02
X92.71Y-52.705
X92.71Y-72.39
X99.06Y-30.48
X99.06Y-50.165
X99.06Y-69.85
X112.395Y-33.02
X112.395Y-52.705
X112.395Y-72.39
X118.745Y-30.48
X118.745Y-50.165
X118.745Y-69.85
T2
X135.385Y-28.668G85X135.385Y-29.717
G05
X135.405Y-24.067G85X135.405Y-25.117
G05
X146.535Y-28.668G85X146.535Y-29.717
G05
X146.555Y-24.067G85X146.555Y-25.117
G05
T0
M30
