M48
; DRILL file {KiCad (6.0.7)} date Mon Feb 20 15:38:46 2023
; FORMAT={-:-/ absolute / metric / decimal}
; #@! TF.CreationDate,2023-02-20T15:38:46+01:00
; #@! TF.GenerationSoftware,Kicad,Pcbnew,(6.0.7)
; #@! TF.FileFunction,NonPlated,1,2,NPTH
FMAT,2
METRIC
; #@! TA.AperFunction,NonPlated,NPTH,ComponentDrill
T1C0.650
; #@! TA.AperFunction,NonPlated,NPTH,ComponentDrill
T2C1.750
; #@! TA.AperFunction,NonPlated,NPTH,ComponentDrill
T3C2.200
; #@! TA.AperFunction,NonPlated,NPTH,ComponentDrill
T4C3.988
%
G90
G05
T1
X137.21Y-29.272
X144.71Y-29.272
T2
X32.385Y-35.56
X32.385Y-55.245
X32.385Y-74.93
X42.545Y-35.56
X42.545Y-55.245
X42.545Y-74.93
X52.07Y-35.56
X52.07Y-55.245
X52.07Y-74.93
X62.23Y-35.56
X62.23Y-55.245
X62.23Y-74.93
X71.755Y-35.56
X71.755Y-55.245
X71.755Y-74.93
X81.915Y-35.56
X81.915Y-55.245
X81.915Y-74.93
X91.44Y-35.56
X91.44Y-55.245
X91.44Y-74.93
X101.6Y-35.56
X101.6Y-55.245
X101.6Y-74.93
X111.125Y-35.56
X111.125Y-55.245
X111.125Y-74.93
X121.285Y-35.56
X121.285Y-55.245
X121.285Y-74.93
T3
X22.225Y-27.94
X22.225Y-82.55
X150.495Y-27.94
X150.495Y-82.55
T4
X37.465Y-35.56
X37.465Y-55.245
X37.465Y-74.93
X57.15Y-35.56
X57.15Y-55.245
X57.15Y-74.93
X76.835Y-35.56
X76.835Y-55.245
X76.835Y-74.93
X96.52Y-35.56
X96.52Y-55.245
X96.52Y-74.93
X116.205Y-35.56
X116.205Y-55.245
X116.205Y-74.93
T0
M30
