%TF.GenerationSoftware,KiCad,Pcbnew,(6.0.7)*%
%TF.CreationDate,2023-02-20T15:39:00+01:00*%
%TF.ProjectId,Soundboard,536f756e-6462-46f6-9172-642e6b696361,rev?*%
%TF.SameCoordinates,Original*%
%TF.FileFunction,Drillmap*%
%TF.FilePolarity,Positive*%
%FSLAX45Y45*%
G04 Gerber Fmt 4.5, Leading zero omitted, Abs format (unit mm)*
G04 Created by KiCad (PCBNEW (6.0.7)) date 2023-02-20 15:39:00*
%MOMM*%
%LPD*%
G01*
G04 APERTURE LIST*
%ADD10C,0.100000*%
%ADD11C,0.200000*%
%ADD12C,0.065000*%
%ADD13C,0.175000*%
%ADD14C,0.220000*%
%ADD15C,0.398780*%
G04 APERTURE END LIST*
D10*
X15557500Y-2794000D02*
X15557500Y-8255000D01*
X1714500Y-8255000D02*
G75*
G03*
X2222500Y-8763000I508000J0D01*
G01*
X2222500Y-2286000D02*
X15049500Y-2286000D01*
X15557500Y-2794000D02*
G75*
G03*
X15049500Y-2286000I-508000J0D01*
G01*
X15049500Y-8763000D02*
G75*
G03*
X15557500Y-8255000I0J508000D01*
G01*
X1714500Y-2794000D02*
X1714500Y-8255000D01*
X15049500Y-8763000D02*
X2222500Y-8763000D01*
X2222500Y-2286000D02*
G75*
G03*
X1714500Y-2794000I0J-508000D01*
G01*
D11*
D12*
X13688500Y-2894750D02*
X13753500Y-2959750D01*
X13753500Y-2894750D02*
X13688500Y-2959750D01*
X14438500Y-2894750D02*
X14503500Y-2959750D01*
X14503500Y-2894750D02*
X14438500Y-2959750D01*
D13*
X3326000Y-3556000D02*
G75*
G03*
X3326000Y-3556000I-87500J0D01*
G01*
X3326000Y-5524500D02*
G75*
G03*
X3326000Y-5524500I-87500J0D01*
G01*
X3326000Y-7493000D02*
G75*
G03*
X3326000Y-7493000I-87500J0D01*
G01*
X4342000Y-3556000D02*
G75*
G03*
X4342000Y-3556000I-87500J0D01*
G01*
X4342000Y-5524500D02*
G75*
G03*
X4342000Y-5524500I-87500J0D01*
G01*
X4342000Y-7493000D02*
G75*
G03*
X4342000Y-7493000I-87500J0D01*
G01*
X5294500Y-3556000D02*
G75*
G03*
X5294500Y-3556000I-87500J0D01*
G01*
X5294500Y-5524500D02*
G75*
G03*
X5294500Y-5524500I-87500J0D01*
G01*
X5294500Y-7493000D02*
G75*
G03*
X5294500Y-7493000I-87500J0D01*
G01*
X6310500Y-3556000D02*
G75*
G03*
X6310500Y-3556000I-87500J0D01*
G01*
X6310500Y-5524500D02*
G75*
G03*
X6310500Y-5524500I-87500J0D01*
G01*
X6310500Y-7493000D02*
G75*
G03*
X6310500Y-7493000I-87500J0D01*
G01*
X7263000Y-3556000D02*
G75*
G03*
X7263000Y-3556000I-87500J0D01*
G01*
X7263000Y-5524500D02*
G75*
G03*
X7263000Y-5524500I-87500J0D01*
G01*
X7263000Y-7493000D02*
G75*
G03*
X7263000Y-7493000I-87500J0D01*
G01*
X8279000Y-3556000D02*
G75*
G03*
X8279000Y-3556000I-87500J0D01*
G01*
X8279000Y-5524500D02*
G75*
G03*
X8279000Y-5524500I-87500J0D01*
G01*
X8279000Y-7493000D02*
G75*
G03*
X8279000Y-7493000I-87500J0D01*
G01*
X9231500Y-3556000D02*
G75*
G03*
X9231500Y-3556000I-87500J0D01*
G01*
X9231500Y-5524500D02*
G75*
G03*
X9231500Y-5524500I-87500J0D01*
G01*
X9231500Y-7493000D02*
G75*
G03*
X9231500Y-7493000I-87500J0D01*
G01*
X10247500Y-3556000D02*
G75*
G03*
X10247500Y-3556000I-87500J0D01*
G01*
X10247500Y-5524500D02*
G75*
G03*
X10247500Y-5524500I-87500J0D01*
G01*
X10247500Y-7493000D02*
G75*
G03*
X10247500Y-7493000I-87500J0D01*
G01*
X11200000Y-3556000D02*
G75*
G03*
X11200000Y-3556000I-87500J0D01*
G01*
X11200000Y-5524500D02*
G75*
G03*
X11200000Y-5524500I-87500J0D01*
G01*
X11200000Y-7493000D02*
G75*
G03*
X11200000Y-7493000I-87500J0D01*
G01*
X12216000Y-3556000D02*
G75*
G03*
X12216000Y-3556000I-87500J0D01*
G01*
X12216000Y-5524500D02*
G75*
G03*
X12216000Y-5524500I-87500J0D01*
G01*
X12216000Y-7493000D02*
G75*
G03*
X12216000Y-7493000I-87500J0D01*
G01*
D14*
X2222500Y-2684000D02*
X2222500Y-2904000D01*
X2112500Y-2794000D02*
X2332500Y-2794000D01*
X2222500Y-8145000D02*
X2222500Y-8365000D01*
X2112500Y-8255000D02*
X2332500Y-8255000D01*
X15049500Y-2684000D02*
X15049500Y-2904000D01*
X14939500Y-2794000D02*
X15159500Y-2794000D01*
X15049500Y-8145000D02*
X15049500Y-8365000D01*
X14939500Y-8255000D02*
X15159500Y-8255000D01*
D15*
X3887491Y-3696991D02*
X3887491Y-3415009D01*
X3605509Y-3415009D01*
X3605509Y-3696991D01*
X3887491Y-3696991D01*
X3887491Y-5665491D02*
X3887491Y-5383509D01*
X3605509Y-5383509D01*
X3605509Y-5665491D01*
X3887491Y-5665491D01*
X3887491Y-7633991D02*
X3887491Y-7352009D01*
X3605509Y-7352009D01*
X3605509Y-7633991D01*
X3887491Y-7633991D01*
X5855991Y-3696991D02*
X5855991Y-3415009D01*
X5574009Y-3415009D01*
X5574009Y-3696991D01*
X5855991Y-3696991D01*
X5855991Y-5665491D02*
X5855991Y-5383509D01*
X5574009Y-5383509D01*
X5574009Y-5665491D01*
X5855991Y-5665491D01*
X5855991Y-7633991D02*
X5855991Y-7352009D01*
X5574009Y-7352009D01*
X5574009Y-7633991D01*
X5855991Y-7633991D01*
X7824491Y-3696991D02*
X7824491Y-3415009D01*
X7542509Y-3415009D01*
X7542509Y-3696991D01*
X7824491Y-3696991D01*
X7824491Y-5665491D02*
X7824491Y-5383509D01*
X7542509Y-5383509D01*
X7542509Y-5665491D01*
X7824491Y-5665491D01*
X7824491Y-7633991D02*
X7824491Y-7352009D01*
X7542509Y-7352009D01*
X7542509Y-7633991D01*
X7824491Y-7633991D01*
X9792991Y-3696991D02*
X9792991Y-3415009D01*
X9511009Y-3415009D01*
X9511009Y-3696991D01*
X9792991Y-3696991D01*
X9792991Y-5665491D02*
X9792991Y-5383509D01*
X9511009Y-5383509D01*
X9511009Y-5665491D01*
X9792991Y-5665491D01*
X9792991Y-7633991D02*
X9792991Y-7352009D01*
X9511009Y-7352009D01*
X9511009Y-7633991D01*
X9792991Y-7633991D01*
X11761491Y-3696991D02*
X11761491Y-3415009D01*
X11479509Y-3415009D01*
X11479509Y-3696991D01*
X11761491Y-3696991D01*
X11761491Y-5665491D02*
X11761491Y-5383509D01*
X11479509Y-5383509D01*
X11479509Y-5665491D01*
X11761491Y-5665491D01*
X11761491Y-7633991D02*
X11761491Y-7352009D01*
X11479509Y-7352009D01*
X11479509Y-7633991D01*
X11761491Y-7633991D01*
D11*
X1967119Y-9078476D02*
X1967119Y-8878476D01*
X2014738Y-8878476D01*
X2043309Y-8888000D01*
X2062357Y-8907048D01*
X2071881Y-8926095D01*
X2081405Y-8964190D01*
X2081405Y-8992762D01*
X2071881Y-9030857D01*
X2062357Y-9049905D01*
X2043309Y-9068952D01*
X2014738Y-9078476D01*
X1967119Y-9078476D01*
X2167119Y-9078476D02*
X2167119Y-8945143D01*
X2167119Y-8983238D02*
X2176643Y-8964190D01*
X2186167Y-8954667D01*
X2205214Y-8945143D01*
X2224262Y-8945143D01*
X2290929Y-9078476D02*
X2290929Y-8945143D01*
X2290929Y-8878476D02*
X2281405Y-8888000D01*
X2290929Y-8897524D01*
X2300452Y-8888000D01*
X2290929Y-8878476D01*
X2290929Y-8897524D01*
X2414738Y-9078476D02*
X2395690Y-9068952D01*
X2386167Y-9049905D01*
X2386167Y-8878476D01*
X2519500Y-9078476D02*
X2500452Y-9068952D01*
X2490929Y-9049905D01*
X2490929Y-8878476D01*
X2748071Y-9078476D02*
X2748071Y-8878476D01*
X2814738Y-9021333D01*
X2881405Y-8878476D01*
X2881405Y-9078476D01*
X3062357Y-9078476D02*
X3062357Y-8973714D01*
X3052833Y-8954667D01*
X3033786Y-8945143D01*
X2995690Y-8945143D01*
X2976643Y-8954667D01*
X3062357Y-9068952D02*
X3043309Y-9078476D01*
X2995690Y-9078476D01*
X2976643Y-9068952D01*
X2967119Y-9049905D01*
X2967119Y-9030857D01*
X2976643Y-9011810D01*
X2995690Y-9002286D01*
X3043309Y-9002286D01*
X3062357Y-8992762D01*
X3157595Y-8945143D02*
X3157595Y-9145143D01*
X3157595Y-8954667D02*
X3176643Y-8945143D01*
X3214738Y-8945143D01*
X3233786Y-8954667D01*
X3243309Y-8964190D01*
X3252833Y-8983238D01*
X3252833Y-9040381D01*
X3243309Y-9059429D01*
X3233786Y-9068952D01*
X3214738Y-9078476D01*
X3176643Y-9078476D01*
X3157595Y-9068952D01*
X3338548Y-9059429D02*
X3348071Y-9068952D01*
X3338548Y-9078476D01*
X3329024Y-9068952D01*
X3338548Y-9059429D01*
X3338548Y-9078476D01*
X3338548Y-8954667D02*
X3348071Y-8964190D01*
X3338548Y-8973714D01*
X3329024Y-8964190D01*
X3338548Y-8954667D01*
X3338548Y-8973714D01*
D12*
X1644500Y-9375500D02*
X1709500Y-9440500D01*
X1709500Y-9375500D02*
X1644500Y-9440500D01*
D11*
X2005214Y-9298476D02*
X2024262Y-9298476D01*
X2043309Y-9308000D01*
X2052833Y-9317524D01*
X2062357Y-9336571D01*
X2071881Y-9374667D01*
X2071881Y-9422286D01*
X2062357Y-9460381D01*
X2052833Y-9479429D01*
X2043309Y-9488952D01*
X2024262Y-9498476D01*
X2005214Y-9498476D01*
X1986167Y-9488952D01*
X1976643Y-9479429D01*
X1967119Y-9460381D01*
X1957595Y-9422286D01*
X1957595Y-9374667D01*
X1967119Y-9336571D01*
X1976643Y-9317524D01*
X1986167Y-9308000D01*
X2005214Y-9298476D01*
X2157595Y-9479429D02*
X2167119Y-9488952D01*
X2157595Y-9498476D01*
X2148071Y-9488952D01*
X2157595Y-9479429D01*
X2157595Y-9498476D01*
X2338548Y-9298476D02*
X2300452Y-9298476D01*
X2281405Y-9308000D01*
X2271881Y-9317524D01*
X2252833Y-9346095D01*
X2243310Y-9384190D01*
X2243310Y-9460381D01*
X2252833Y-9479429D01*
X2262357Y-9488952D01*
X2281405Y-9498476D01*
X2319500Y-9498476D01*
X2338548Y-9488952D01*
X2348071Y-9479429D01*
X2357595Y-9460381D01*
X2357595Y-9412762D01*
X2348071Y-9393714D01*
X2338548Y-9384190D01*
X2319500Y-9374667D01*
X2281405Y-9374667D01*
X2262357Y-9384190D01*
X2252833Y-9393714D01*
X2243310Y-9412762D01*
X2538548Y-9298476D02*
X2443310Y-9298476D01*
X2433786Y-9393714D01*
X2443310Y-9384190D01*
X2462357Y-9374667D01*
X2509976Y-9374667D01*
X2529024Y-9384190D01*
X2538548Y-9393714D01*
X2548071Y-9412762D01*
X2548071Y-9460381D01*
X2538548Y-9479429D01*
X2529024Y-9488952D01*
X2509976Y-9498476D01*
X2462357Y-9498476D01*
X2443310Y-9488952D01*
X2433786Y-9479429D01*
X2671881Y-9298476D02*
X2690929Y-9298476D01*
X2709976Y-9308000D01*
X2719500Y-9317524D01*
X2729024Y-9336571D01*
X2738548Y-9374667D01*
X2738548Y-9422286D01*
X2729024Y-9460381D01*
X2719500Y-9479429D01*
X2709976Y-9488952D01*
X2690929Y-9498476D01*
X2671881Y-9498476D01*
X2652833Y-9488952D01*
X2643310Y-9479429D01*
X2633786Y-9460381D01*
X2624262Y-9422286D01*
X2624262Y-9374667D01*
X2633786Y-9336571D01*
X2643310Y-9317524D01*
X2652833Y-9308000D01*
X2671881Y-9298476D01*
X2824262Y-9498476D02*
X2824262Y-9365143D01*
X2824262Y-9384190D02*
X2833786Y-9374667D01*
X2852833Y-9365143D01*
X2881405Y-9365143D01*
X2900452Y-9374667D01*
X2909976Y-9393714D01*
X2909976Y-9498476D01*
X2909976Y-9393714D02*
X2919500Y-9374667D01*
X2938548Y-9365143D01*
X2967119Y-9365143D01*
X2986167Y-9374667D01*
X2995690Y-9393714D01*
X2995690Y-9498476D01*
X3090928Y-9498476D02*
X3090928Y-9365143D01*
X3090928Y-9384190D02*
X3100452Y-9374667D01*
X3119500Y-9365143D01*
X3148071Y-9365143D01*
X3167119Y-9374667D01*
X3176643Y-9393714D01*
X3176643Y-9498476D01*
X3176643Y-9393714D02*
X3186167Y-9374667D01*
X3205214Y-9365143D01*
X3233786Y-9365143D01*
X3252833Y-9374667D01*
X3262357Y-9393714D01*
X3262357Y-9498476D01*
X3652833Y-9288952D02*
X3481405Y-9546095D01*
X3909976Y-9298476D02*
X3929024Y-9298476D01*
X3948071Y-9308000D01*
X3957595Y-9317524D01*
X3967119Y-9336571D01*
X3976643Y-9374667D01*
X3976643Y-9422286D01*
X3967119Y-9460381D01*
X3957595Y-9479429D01*
X3948071Y-9488952D01*
X3929024Y-9498476D01*
X3909976Y-9498476D01*
X3890928Y-9488952D01*
X3881405Y-9479429D01*
X3871881Y-9460381D01*
X3862357Y-9422286D01*
X3862357Y-9374667D01*
X3871881Y-9336571D01*
X3881405Y-9317524D01*
X3890928Y-9308000D01*
X3909976Y-9298476D01*
X4062357Y-9479429D02*
X4071881Y-9488952D01*
X4062357Y-9498476D01*
X4052833Y-9488952D01*
X4062357Y-9479429D01*
X4062357Y-9498476D01*
X4195690Y-9298476D02*
X4214738Y-9298476D01*
X4233786Y-9308000D01*
X4243310Y-9317524D01*
X4252833Y-9336571D01*
X4262357Y-9374667D01*
X4262357Y-9422286D01*
X4252833Y-9460381D01*
X4243310Y-9479429D01*
X4233786Y-9488952D01*
X4214738Y-9498476D01*
X4195690Y-9498476D01*
X4176643Y-9488952D01*
X4167119Y-9479429D01*
X4157595Y-9460381D01*
X4148071Y-9422286D01*
X4148071Y-9374667D01*
X4157595Y-9336571D01*
X4167119Y-9317524D01*
X4176643Y-9308000D01*
X4195690Y-9298476D01*
X4338548Y-9317524D02*
X4348071Y-9308000D01*
X4367119Y-9298476D01*
X4414738Y-9298476D01*
X4433786Y-9308000D01*
X4443310Y-9317524D01*
X4452833Y-9336571D01*
X4452833Y-9355619D01*
X4443310Y-9384190D01*
X4329024Y-9498476D01*
X4452833Y-9498476D01*
X4633786Y-9298476D02*
X4538548Y-9298476D01*
X4529024Y-9393714D01*
X4538548Y-9384190D01*
X4557595Y-9374667D01*
X4605214Y-9374667D01*
X4624262Y-9384190D01*
X4633786Y-9393714D01*
X4643310Y-9412762D01*
X4643310Y-9460381D01*
X4633786Y-9479429D01*
X4624262Y-9488952D01*
X4605214Y-9498476D01*
X4557595Y-9498476D01*
X4538548Y-9488952D01*
X4529024Y-9479429D01*
X4814738Y-9298476D02*
X4776643Y-9298476D01*
X4757595Y-9308000D01*
X4748071Y-9317524D01*
X4729024Y-9346095D01*
X4719500Y-9384190D01*
X4719500Y-9460381D01*
X4729024Y-9479429D01*
X4738548Y-9488952D01*
X4757595Y-9498476D01*
X4795690Y-9498476D01*
X4814738Y-9488952D01*
X4824262Y-9479429D01*
X4833786Y-9460381D01*
X4833786Y-9412762D01*
X4824262Y-9393714D01*
X4814738Y-9384190D01*
X4795690Y-9374667D01*
X4757595Y-9374667D01*
X4738548Y-9384190D01*
X4729024Y-9393714D01*
X4719500Y-9412762D01*
X4909976Y-9298476D02*
X4909976Y-9336571D01*
X4986167Y-9298476D02*
X4986167Y-9336571D01*
X5281405Y-9574667D02*
X5271881Y-9565143D01*
X5252833Y-9536571D01*
X5243310Y-9517524D01*
X5233786Y-9488952D01*
X5224262Y-9441333D01*
X5224262Y-9403238D01*
X5233786Y-9355619D01*
X5243310Y-9327048D01*
X5252833Y-9308000D01*
X5271881Y-9279429D01*
X5281405Y-9269905D01*
X5348071Y-9317524D02*
X5357595Y-9308000D01*
X5376643Y-9298476D01*
X5424262Y-9298476D01*
X5443310Y-9308000D01*
X5452833Y-9317524D01*
X5462357Y-9336571D01*
X5462357Y-9355619D01*
X5452833Y-9384190D01*
X5338548Y-9498476D01*
X5462357Y-9498476D01*
X5700452Y-9498476D02*
X5700452Y-9298476D01*
X5786167Y-9498476D02*
X5786167Y-9393714D01*
X5776643Y-9374667D01*
X5757595Y-9365143D01*
X5729024Y-9365143D01*
X5709976Y-9374667D01*
X5700452Y-9384190D01*
X5909976Y-9498476D02*
X5890928Y-9488952D01*
X5881405Y-9479429D01*
X5871881Y-9460381D01*
X5871881Y-9403238D01*
X5881405Y-9384190D01*
X5890928Y-9374667D01*
X5909976Y-9365143D01*
X5938548Y-9365143D01*
X5957595Y-9374667D01*
X5967119Y-9384190D01*
X5976643Y-9403238D01*
X5976643Y-9460381D01*
X5967119Y-9479429D01*
X5957595Y-9488952D01*
X5938548Y-9498476D01*
X5909976Y-9498476D01*
X6090928Y-9498476D02*
X6071881Y-9488952D01*
X6062357Y-9469905D01*
X6062357Y-9298476D01*
X6243309Y-9488952D02*
X6224262Y-9498476D01*
X6186167Y-9498476D01*
X6167119Y-9488952D01*
X6157595Y-9469905D01*
X6157595Y-9393714D01*
X6167119Y-9374667D01*
X6186167Y-9365143D01*
X6224262Y-9365143D01*
X6243309Y-9374667D01*
X6252833Y-9393714D01*
X6252833Y-9412762D01*
X6157595Y-9431810D01*
X6329024Y-9488952D02*
X6348071Y-9498476D01*
X6386167Y-9498476D01*
X6405214Y-9488952D01*
X6414738Y-9469905D01*
X6414738Y-9460381D01*
X6405214Y-9441333D01*
X6386167Y-9431810D01*
X6357595Y-9431810D01*
X6338548Y-9422286D01*
X6329024Y-9403238D01*
X6329024Y-9393714D01*
X6338548Y-9374667D01*
X6357595Y-9365143D01*
X6386167Y-9365143D01*
X6405214Y-9374667D01*
X6481405Y-9574667D02*
X6490928Y-9565143D01*
X6509976Y-9536571D01*
X6519500Y-9517524D01*
X6529024Y-9488952D01*
X6538548Y-9441333D01*
X6538548Y-9403238D01*
X6529024Y-9355619D01*
X6519500Y-9327048D01*
X6509976Y-9308000D01*
X6490928Y-9279429D01*
X6481405Y-9269905D01*
X6843309Y-9574667D02*
X6833786Y-9565143D01*
X6814738Y-9536571D01*
X6805214Y-9517524D01*
X6795690Y-9488952D01*
X6786167Y-9441333D01*
X6786167Y-9403238D01*
X6795690Y-9355619D01*
X6805214Y-9327048D01*
X6814738Y-9308000D01*
X6833786Y-9279429D01*
X6843309Y-9269905D01*
X6919500Y-9365143D02*
X6919500Y-9498476D01*
X6919500Y-9384190D02*
X6929024Y-9374667D01*
X6948071Y-9365143D01*
X6976643Y-9365143D01*
X6995690Y-9374667D01*
X7005214Y-9393714D01*
X7005214Y-9498476D01*
X7129024Y-9498476D02*
X7109976Y-9488952D01*
X7100452Y-9479429D01*
X7090928Y-9460381D01*
X7090928Y-9403238D01*
X7100452Y-9384190D01*
X7109976Y-9374667D01*
X7129024Y-9365143D01*
X7157595Y-9365143D01*
X7176643Y-9374667D01*
X7186167Y-9384190D01*
X7195690Y-9403238D01*
X7195690Y-9460381D01*
X7186167Y-9479429D01*
X7176643Y-9488952D01*
X7157595Y-9498476D01*
X7129024Y-9498476D01*
X7252833Y-9365143D02*
X7329024Y-9365143D01*
X7281405Y-9298476D02*
X7281405Y-9469905D01*
X7290928Y-9488952D01*
X7309976Y-9498476D01*
X7329024Y-9498476D01*
X7548071Y-9365143D02*
X7548071Y-9565143D01*
X7548071Y-9374667D02*
X7567119Y-9365143D01*
X7605214Y-9365143D01*
X7624262Y-9374667D01*
X7633786Y-9384190D01*
X7643309Y-9403238D01*
X7643309Y-9460381D01*
X7633786Y-9479429D01*
X7624262Y-9488952D01*
X7605214Y-9498476D01*
X7567119Y-9498476D01*
X7548071Y-9488952D01*
X7757595Y-9498476D02*
X7738548Y-9488952D01*
X7729024Y-9469905D01*
X7729024Y-9298476D01*
X7919500Y-9498476D02*
X7919500Y-9393714D01*
X7909976Y-9374667D01*
X7890928Y-9365143D01*
X7852833Y-9365143D01*
X7833786Y-9374667D01*
X7919500Y-9488952D02*
X7900452Y-9498476D01*
X7852833Y-9498476D01*
X7833786Y-9488952D01*
X7824262Y-9469905D01*
X7824262Y-9450857D01*
X7833786Y-9431810D01*
X7852833Y-9422286D01*
X7900452Y-9422286D01*
X7919500Y-9412762D01*
X7986167Y-9365143D02*
X8062357Y-9365143D01*
X8014738Y-9298476D02*
X8014738Y-9469905D01*
X8024262Y-9488952D01*
X8043309Y-9498476D01*
X8062357Y-9498476D01*
X8205214Y-9488952D02*
X8186167Y-9498476D01*
X8148071Y-9498476D01*
X8129024Y-9488952D01*
X8119500Y-9469905D01*
X8119500Y-9393714D01*
X8129024Y-9374667D01*
X8148071Y-9365143D01*
X8186167Y-9365143D01*
X8205214Y-9374667D01*
X8214738Y-9393714D01*
X8214738Y-9412762D01*
X8119500Y-9431810D01*
X8386167Y-9498476D02*
X8386167Y-9298476D01*
X8386167Y-9488952D02*
X8367119Y-9498476D01*
X8329024Y-9498476D01*
X8309976Y-9488952D01*
X8300452Y-9479429D01*
X8290928Y-9460381D01*
X8290928Y-9403238D01*
X8300452Y-9384190D01*
X8309976Y-9374667D01*
X8329024Y-9365143D01*
X8367119Y-9365143D01*
X8386167Y-9374667D01*
X8462357Y-9574667D02*
X8471881Y-9565143D01*
X8490929Y-9536571D01*
X8500452Y-9517524D01*
X8509976Y-9488952D01*
X8519500Y-9441333D01*
X8519500Y-9403238D01*
X8509976Y-9355619D01*
X8500452Y-9327048D01*
X8490929Y-9308000D01*
X8471881Y-9279429D01*
X8462357Y-9269905D01*
D13*
X1709500Y-9672000D02*
G75*
G03*
X1709500Y-9672000I-87500J0D01*
G01*
D11*
X2071881Y-9762476D02*
X1957595Y-9762476D01*
X2014738Y-9762476D02*
X2014738Y-9562476D01*
X1995690Y-9591048D01*
X1976643Y-9610095D01*
X1957595Y-9619619D01*
X2157595Y-9743429D02*
X2167119Y-9752952D01*
X2157595Y-9762476D01*
X2148071Y-9752952D01*
X2157595Y-9743429D01*
X2157595Y-9762476D01*
X2233786Y-9562476D02*
X2367119Y-9562476D01*
X2281405Y-9762476D01*
X2538548Y-9562476D02*
X2443310Y-9562476D01*
X2433786Y-9657714D01*
X2443310Y-9648190D01*
X2462357Y-9638667D01*
X2509976Y-9638667D01*
X2529024Y-9648190D01*
X2538548Y-9657714D01*
X2548071Y-9676762D01*
X2548071Y-9724381D01*
X2538548Y-9743429D01*
X2529024Y-9752952D01*
X2509976Y-9762476D01*
X2462357Y-9762476D01*
X2443310Y-9752952D01*
X2433786Y-9743429D01*
X2671881Y-9562476D02*
X2690929Y-9562476D01*
X2709976Y-9572000D01*
X2719500Y-9581524D01*
X2729024Y-9600571D01*
X2738548Y-9638667D01*
X2738548Y-9686286D01*
X2729024Y-9724381D01*
X2719500Y-9743429D01*
X2709976Y-9752952D01*
X2690929Y-9762476D01*
X2671881Y-9762476D01*
X2652833Y-9752952D01*
X2643310Y-9743429D01*
X2633786Y-9724381D01*
X2624262Y-9686286D01*
X2624262Y-9638667D01*
X2633786Y-9600571D01*
X2643310Y-9581524D01*
X2652833Y-9572000D01*
X2671881Y-9562476D01*
X2824262Y-9762476D02*
X2824262Y-9629143D01*
X2824262Y-9648190D02*
X2833786Y-9638667D01*
X2852833Y-9629143D01*
X2881405Y-9629143D01*
X2900452Y-9638667D01*
X2909976Y-9657714D01*
X2909976Y-9762476D01*
X2909976Y-9657714D02*
X2919500Y-9638667D01*
X2938548Y-9629143D01*
X2967119Y-9629143D01*
X2986167Y-9638667D01*
X2995690Y-9657714D01*
X2995690Y-9762476D01*
X3090928Y-9762476D02*
X3090928Y-9629143D01*
X3090928Y-9648190D02*
X3100452Y-9638667D01*
X3119500Y-9629143D01*
X3148071Y-9629143D01*
X3167119Y-9638667D01*
X3176643Y-9657714D01*
X3176643Y-9762476D01*
X3176643Y-9657714D02*
X3186167Y-9638667D01*
X3205214Y-9629143D01*
X3233786Y-9629143D01*
X3252833Y-9638667D01*
X3262357Y-9657714D01*
X3262357Y-9762476D01*
X3652833Y-9552952D02*
X3481405Y-9810095D01*
X3909976Y-9562476D02*
X3929024Y-9562476D01*
X3948071Y-9572000D01*
X3957595Y-9581524D01*
X3967119Y-9600571D01*
X3976643Y-9638667D01*
X3976643Y-9686286D01*
X3967119Y-9724381D01*
X3957595Y-9743429D01*
X3948071Y-9752952D01*
X3929024Y-9762476D01*
X3909976Y-9762476D01*
X3890928Y-9752952D01*
X3881405Y-9743429D01*
X3871881Y-9724381D01*
X3862357Y-9686286D01*
X3862357Y-9638667D01*
X3871881Y-9600571D01*
X3881405Y-9581524D01*
X3890928Y-9572000D01*
X3909976Y-9562476D01*
X4062357Y-9743429D02*
X4071881Y-9752952D01*
X4062357Y-9762476D01*
X4052833Y-9752952D01*
X4062357Y-9743429D01*
X4062357Y-9762476D01*
X4195690Y-9562476D02*
X4214738Y-9562476D01*
X4233786Y-9572000D01*
X4243310Y-9581524D01*
X4252833Y-9600571D01*
X4262357Y-9638667D01*
X4262357Y-9686286D01*
X4252833Y-9724381D01*
X4243310Y-9743429D01*
X4233786Y-9752952D01*
X4214738Y-9762476D01*
X4195690Y-9762476D01*
X4176643Y-9752952D01*
X4167119Y-9743429D01*
X4157595Y-9724381D01*
X4148071Y-9686286D01*
X4148071Y-9638667D01*
X4157595Y-9600571D01*
X4167119Y-9581524D01*
X4176643Y-9572000D01*
X4195690Y-9562476D01*
X4433786Y-9562476D02*
X4395690Y-9562476D01*
X4376643Y-9572000D01*
X4367119Y-9581524D01*
X4348071Y-9610095D01*
X4338548Y-9648190D01*
X4338548Y-9724381D01*
X4348071Y-9743429D01*
X4357595Y-9752952D01*
X4376643Y-9762476D01*
X4414738Y-9762476D01*
X4433786Y-9752952D01*
X4443310Y-9743429D01*
X4452833Y-9724381D01*
X4452833Y-9676762D01*
X4443310Y-9657714D01*
X4433786Y-9648190D01*
X4414738Y-9638667D01*
X4376643Y-9638667D01*
X4357595Y-9648190D01*
X4348071Y-9657714D01*
X4338548Y-9676762D01*
X4567119Y-9648190D02*
X4548071Y-9638667D01*
X4538548Y-9629143D01*
X4529024Y-9610095D01*
X4529024Y-9600571D01*
X4538548Y-9581524D01*
X4548071Y-9572000D01*
X4567119Y-9562476D01*
X4605214Y-9562476D01*
X4624262Y-9572000D01*
X4633786Y-9581524D01*
X4643310Y-9600571D01*
X4643310Y-9610095D01*
X4633786Y-9629143D01*
X4624262Y-9638667D01*
X4605214Y-9648190D01*
X4567119Y-9648190D01*
X4548071Y-9657714D01*
X4538548Y-9667238D01*
X4529024Y-9686286D01*
X4529024Y-9724381D01*
X4538548Y-9743429D01*
X4548071Y-9752952D01*
X4567119Y-9762476D01*
X4605214Y-9762476D01*
X4624262Y-9752952D01*
X4633786Y-9743429D01*
X4643310Y-9724381D01*
X4643310Y-9686286D01*
X4633786Y-9667238D01*
X4624262Y-9657714D01*
X4605214Y-9648190D01*
X4738548Y-9762476D02*
X4776643Y-9762476D01*
X4795690Y-9752952D01*
X4805214Y-9743429D01*
X4824262Y-9714857D01*
X4833786Y-9676762D01*
X4833786Y-9600571D01*
X4824262Y-9581524D01*
X4814738Y-9572000D01*
X4795690Y-9562476D01*
X4757595Y-9562476D01*
X4738548Y-9572000D01*
X4729024Y-9581524D01*
X4719500Y-9600571D01*
X4719500Y-9648190D01*
X4729024Y-9667238D01*
X4738548Y-9676762D01*
X4757595Y-9686286D01*
X4795690Y-9686286D01*
X4814738Y-9676762D01*
X4824262Y-9667238D01*
X4833786Y-9648190D01*
X4909976Y-9562476D02*
X4909976Y-9600571D01*
X4986167Y-9562476D02*
X4986167Y-9600571D01*
X5281405Y-9838667D02*
X5271881Y-9829143D01*
X5252833Y-9800571D01*
X5243310Y-9781524D01*
X5233786Y-9752952D01*
X5224262Y-9705333D01*
X5224262Y-9667238D01*
X5233786Y-9619619D01*
X5243310Y-9591048D01*
X5252833Y-9572000D01*
X5271881Y-9543429D01*
X5281405Y-9533905D01*
X5338548Y-9562476D02*
X5462357Y-9562476D01*
X5395690Y-9638667D01*
X5424262Y-9638667D01*
X5443310Y-9648190D01*
X5452833Y-9657714D01*
X5462357Y-9676762D01*
X5462357Y-9724381D01*
X5452833Y-9743429D01*
X5443310Y-9752952D01*
X5424262Y-9762476D01*
X5367119Y-9762476D01*
X5348071Y-9752952D01*
X5338548Y-9743429D01*
X5586167Y-9562476D02*
X5605214Y-9562476D01*
X5624262Y-9572000D01*
X5633786Y-9581524D01*
X5643309Y-9600571D01*
X5652833Y-9638667D01*
X5652833Y-9686286D01*
X5643309Y-9724381D01*
X5633786Y-9743429D01*
X5624262Y-9752952D01*
X5605214Y-9762476D01*
X5586167Y-9762476D01*
X5567119Y-9752952D01*
X5557595Y-9743429D01*
X5548071Y-9724381D01*
X5538548Y-9686286D01*
X5538548Y-9638667D01*
X5548071Y-9600571D01*
X5557595Y-9581524D01*
X5567119Y-9572000D01*
X5586167Y-9562476D01*
X5890928Y-9762476D02*
X5890928Y-9562476D01*
X5976643Y-9762476D02*
X5976643Y-9657714D01*
X5967119Y-9638667D01*
X5948071Y-9629143D01*
X5919500Y-9629143D01*
X5900452Y-9638667D01*
X5890928Y-9648190D01*
X6100452Y-9762476D02*
X6081405Y-9752952D01*
X6071881Y-9743429D01*
X6062357Y-9724381D01*
X6062357Y-9667238D01*
X6071881Y-9648190D01*
X6081405Y-9638667D01*
X6100452Y-9629143D01*
X6129024Y-9629143D01*
X6148071Y-9638667D01*
X6157595Y-9648190D01*
X6167119Y-9667238D01*
X6167119Y-9724381D01*
X6157595Y-9743429D01*
X6148071Y-9752952D01*
X6129024Y-9762476D01*
X6100452Y-9762476D01*
X6281405Y-9762476D02*
X6262357Y-9752952D01*
X6252833Y-9733905D01*
X6252833Y-9562476D01*
X6433786Y-9752952D02*
X6414738Y-9762476D01*
X6376643Y-9762476D01*
X6357595Y-9752952D01*
X6348071Y-9733905D01*
X6348071Y-9657714D01*
X6357595Y-9638667D01*
X6376643Y-9629143D01*
X6414738Y-9629143D01*
X6433786Y-9638667D01*
X6443309Y-9657714D01*
X6443309Y-9676762D01*
X6348071Y-9695810D01*
X6519500Y-9752952D02*
X6538548Y-9762476D01*
X6576643Y-9762476D01*
X6595690Y-9752952D01*
X6605214Y-9733905D01*
X6605214Y-9724381D01*
X6595690Y-9705333D01*
X6576643Y-9695810D01*
X6548071Y-9695810D01*
X6529024Y-9686286D01*
X6519500Y-9667238D01*
X6519500Y-9657714D01*
X6529024Y-9638667D01*
X6548071Y-9629143D01*
X6576643Y-9629143D01*
X6595690Y-9638667D01*
X6671881Y-9838667D02*
X6681405Y-9829143D01*
X6700452Y-9800571D01*
X6709976Y-9781524D01*
X6719500Y-9752952D01*
X6729024Y-9705333D01*
X6729024Y-9667238D01*
X6719500Y-9619619D01*
X6709976Y-9591048D01*
X6700452Y-9572000D01*
X6681405Y-9543429D01*
X6671881Y-9533905D01*
X7033786Y-9838667D02*
X7024262Y-9829143D01*
X7005214Y-9800571D01*
X6995690Y-9781524D01*
X6986167Y-9752952D01*
X6976643Y-9705333D01*
X6976643Y-9667238D01*
X6986167Y-9619619D01*
X6995690Y-9591048D01*
X7005214Y-9572000D01*
X7024262Y-9543429D01*
X7033786Y-9533905D01*
X7109976Y-9629143D02*
X7109976Y-9762476D01*
X7109976Y-9648190D02*
X7119500Y-9638667D01*
X7138548Y-9629143D01*
X7167119Y-9629143D01*
X7186167Y-9638667D01*
X7195690Y-9657714D01*
X7195690Y-9762476D01*
X7319500Y-9762476D02*
X7300452Y-9752952D01*
X7290928Y-9743429D01*
X7281405Y-9724381D01*
X7281405Y-9667238D01*
X7290928Y-9648190D01*
X7300452Y-9638667D01*
X7319500Y-9629143D01*
X7348071Y-9629143D01*
X7367119Y-9638667D01*
X7376643Y-9648190D01*
X7386167Y-9667238D01*
X7386167Y-9724381D01*
X7376643Y-9743429D01*
X7367119Y-9752952D01*
X7348071Y-9762476D01*
X7319500Y-9762476D01*
X7443309Y-9629143D02*
X7519500Y-9629143D01*
X7471881Y-9562476D02*
X7471881Y-9733905D01*
X7481405Y-9752952D01*
X7500452Y-9762476D01*
X7519500Y-9762476D01*
X7738548Y-9629143D02*
X7738548Y-9829143D01*
X7738548Y-9638667D02*
X7757595Y-9629143D01*
X7795690Y-9629143D01*
X7814738Y-9638667D01*
X7824262Y-9648190D01*
X7833786Y-9667238D01*
X7833786Y-9724381D01*
X7824262Y-9743429D01*
X7814738Y-9752952D01*
X7795690Y-9762476D01*
X7757595Y-9762476D01*
X7738548Y-9752952D01*
X7948071Y-9762476D02*
X7929024Y-9752952D01*
X7919500Y-9733905D01*
X7919500Y-9562476D01*
X8109976Y-9762476D02*
X8109976Y-9657714D01*
X8100452Y-9638667D01*
X8081405Y-9629143D01*
X8043309Y-9629143D01*
X8024262Y-9638667D01*
X8109976Y-9752952D02*
X8090928Y-9762476D01*
X8043309Y-9762476D01*
X8024262Y-9752952D01*
X8014738Y-9733905D01*
X8014738Y-9714857D01*
X8024262Y-9695810D01*
X8043309Y-9686286D01*
X8090928Y-9686286D01*
X8109976Y-9676762D01*
X8176643Y-9629143D02*
X8252833Y-9629143D01*
X8205214Y-9562476D02*
X8205214Y-9733905D01*
X8214738Y-9752952D01*
X8233786Y-9762476D01*
X8252833Y-9762476D01*
X8395690Y-9752952D02*
X8376643Y-9762476D01*
X8338548Y-9762476D01*
X8319500Y-9752952D01*
X8309976Y-9733905D01*
X8309976Y-9657714D01*
X8319500Y-9638667D01*
X8338548Y-9629143D01*
X8376643Y-9629143D01*
X8395690Y-9638667D01*
X8405214Y-9657714D01*
X8405214Y-9676762D01*
X8309976Y-9695810D01*
X8576643Y-9762476D02*
X8576643Y-9562476D01*
X8576643Y-9752952D02*
X8557595Y-9762476D01*
X8519500Y-9762476D01*
X8500452Y-9752952D01*
X8490929Y-9743429D01*
X8481405Y-9724381D01*
X8481405Y-9667238D01*
X8490929Y-9648190D01*
X8500452Y-9638667D01*
X8519500Y-9629143D01*
X8557595Y-9629143D01*
X8576643Y-9638667D01*
X8652833Y-9838667D02*
X8662357Y-9829143D01*
X8681405Y-9800571D01*
X8690929Y-9781524D01*
X8700452Y-9752952D01*
X8709976Y-9705333D01*
X8709976Y-9667238D01*
X8700452Y-9619619D01*
X8690929Y-9591048D01*
X8681405Y-9572000D01*
X8662357Y-9543429D01*
X8652833Y-9533905D01*
X1609500Y-9867000D02*
X1609500Y-10067000D01*
X1509500Y-9967000D02*
X1709500Y-9967000D01*
X1957595Y-9876524D02*
X1967119Y-9867000D01*
X1986167Y-9857476D01*
X2033786Y-9857476D01*
X2052833Y-9867000D01*
X2062357Y-9876524D01*
X2071881Y-9895571D01*
X2071881Y-9914619D01*
X2062357Y-9943190D01*
X1948071Y-10057476D01*
X2071881Y-10057476D01*
X2157595Y-10038429D02*
X2167119Y-10047952D01*
X2157595Y-10057476D01*
X2148071Y-10047952D01*
X2157595Y-10038429D01*
X2157595Y-10057476D01*
X2243310Y-9876524D02*
X2252833Y-9867000D01*
X2271881Y-9857476D01*
X2319500Y-9857476D01*
X2338548Y-9867000D01*
X2348071Y-9876524D01*
X2357595Y-9895571D01*
X2357595Y-9914619D01*
X2348071Y-9943190D01*
X2233786Y-10057476D01*
X2357595Y-10057476D01*
X2481405Y-9857476D02*
X2500452Y-9857476D01*
X2519500Y-9867000D01*
X2529024Y-9876524D01*
X2538548Y-9895571D01*
X2548071Y-9933667D01*
X2548071Y-9981286D01*
X2538548Y-10019381D01*
X2529024Y-10038429D01*
X2519500Y-10047952D01*
X2500452Y-10057476D01*
X2481405Y-10057476D01*
X2462357Y-10047952D01*
X2452833Y-10038429D01*
X2443310Y-10019381D01*
X2433786Y-9981286D01*
X2433786Y-9933667D01*
X2443310Y-9895571D01*
X2452833Y-9876524D01*
X2462357Y-9867000D01*
X2481405Y-9857476D01*
X2671881Y-9857476D02*
X2690929Y-9857476D01*
X2709976Y-9867000D01*
X2719500Y-9876524D01*
X2729024Y-9895571D01*
X2738548Y-9933667D01*
X2738548Y-9981286D01*
X2729024Y-10019381D01*
X2719500Y-10038429D01*
X2709976Y-10047952D01*
X2690929Y-10057476D01*
X2671881Y-10057476D01*
X2652833Y-10047952D01*
X2643310Y-10038429D01*
X2633786Y-10019381D01*
X2624262Y-9981286D01*
X2624262Y-9933667D01*
X2633786Y-9895571D01*
X2643310Y-9876524D01*
X2652833Y-9867000D01*
X2671881Y-9857476D01*
X2824262Y-10057476D02*
X2824262Y-9924143D01*
X2824262Y-9943190D02*
X2833786Y-9933667D01*
X2852833Y-9924143D01*
X2881405Y-9924143D01*
X2900452Y-9933667D01*
X2909976Y-9952714D01*
X2909976Y-10057476D01*
X2909976Y-9952714D02*
X2919500Y-9933667D01*
X2938548Y-9924143D01*
X2967119Y-9924143D01*
X2986167Y-9933667D01*
X2995690Y-9952714D01*
X2995690Y-10057476D01*
X3090928Y-10057476D02*
X3090928Y-9924143D01*
X3090928Y-9943190D02*
X3100452Y-9933667D01*
X3119500Y-9924143D01*
X3148071Y-9924143D01*
X3167119Y-9933667D01*
X3176643Y-9952714D01*
X3176643Y-10057476D01*
X3176643Y-9952714D02*
X3186167Y-9933667D01*
X3205214Y-9924143D01*
X3233786Y-9924143D01*
X3252833Y-9933667D01*
X3262357Y-9952714D01*
X3262357Y-10057476D01*
X3652833Y-9847952D02*
X3481405Y-10105095D01*
X3909976Y-9857476D02*
X3929024Y-9857476D01*
X3948071Y-9867000D01*
X3957595Y-9876524D01*
X3967119Y-9895571D01*
X3976643Y-9933667D01*
X3976643Y-9981286D01*
X3967119Y-10019381D01*
X3957595Y-10038429D01*
X3948071Y-10047952D01*
X3929024Y-10057476D01*
X3909976Y-10057476D01*
X3890928Y-10047952D01*
X3881405Y-10038429D01*
X3871881Y-10019381D01*
X3862357Y-9981286D01*
X3862357Y-9933667D01*
X3871881Y-9895571D01*
X3881405Y-9876524D01*
X3890928Y-9867000D01*
X3909976Y-9857476D01*
X4062357Y-10038429D02*
X4071881Y-10047952D01*
X4062357Y-10057476D01*
X4052833Y-10047952D01*
X4062357Y-10038429D01*
X4062357Y-10057476D01*
X4195690Y-9857476D02*
X4214738Y-9857476D01*
X4233786Y-9867000D01*
X4243310Y-9876524D01*
X4252833Y-9895571D01*
X4262357Y-9933667D01*
X4262357Y-9981286D01*
X4252833Y-10019381D01*
X4243310Y-10038429D01*
X4233786Y-10047952D01*
X4214738Y-10057476D01*
X4195690Y-10057476D01*
X4176643Y-10047952D01*
X4167119Y-10038429D01*
X4157595Y-10019381D01*
X4148071Y-9981286D01*
X4148071Y-9933667D01*
X4157595Y-9895571D01*
X4167119Y-9876524D01*
X4176643Y-9867000D01*
X4195690Y-9857476D01*
X4376643Y-9943190D02*
X4357595Y-9933667D01*
X4348071Y-9924143D01*
X4338548Y-9905095D01*
X4338548Y-9895571D01*
X4348071Y-9876524D01*
X4357595Y-9867000D01*
X4376643Y-9857476D01*
X4414738Y-9857476D01*
X4433786Y-9867000D01*
X4443310Y-9876524D01*
X4452833Y-9895571D01*
X4452833Y-9905095D01*
X4443310Y-9924143D01*
X4433786Y-9933667D01*
X4414738Y-9943190D01*
X4376643Y-9943190D01*
X4357595Y-9952714D01*
X4348071Y-9962238D01*
X4338548Y-9981286D01*
X4338548Y-10019381D01*
X4348071Y-10038429D01*
X4357595Y-10047952D01*
X4376643Y-10057476D01*
X4414738Y-10057476D01*
X4433786Y-10047952D01*
X4443310Y-10038429D01*
X4452833Y-10019381D01*
X4452833Y-9981286D01*
X4443310Y-9962238D01*
X4433786Y-9952714D01*
X4414738Y-9943190D01*
X4624262Y-9857476D02*
X4586167Y-9857476D01*
X4567119Y-9867000D01*
X4557595Y-9876524D01*
X4538548Y-9905095D01*
X4529024Y-9943190D01*
X4529024Y-10019381D01*
X4538548Y-10038429D01*
X4548071Y-10047952D01*
X4567119Y-10057476D01*
X4605214Y-10057476D01*
X4624262Y-10047952D01*
X4633786Y-10038429D01*
X4643310Y-10019381D01*
X4643310Y-9971762D01*
X4633786Y-9952714D01*
X4624262Y-9943190D01*
X4605214Y-9933667D01*
X4567119Y-9933667D01*
X4548071Y-9943190D01*
X4538548Y-9952714D01*
X4529024Y-9971762D01*
X4814738Y-9857476D02*
X4776643Y-9857476D01*
X4757595Y-9867000D01*
X4748071Y-9876524D01*
X4729024Y-9905095D01*
X4719500Y-9943190D01*
X4719500Y-10019381D01*
X4729024Y-10038429D01*
X4738548Y-10047952D01*
X4757595Y-10057476D01*
X4795690Y-10057476D01*
X4814738Y-10047952D01*
X4824262Y-10038429D01*
X4833786Y-10019381D01*
X4833786Y-9971762D01*
X4824262Y-9952714D01*
X4814738Y-9943190D01*
X4795690Y-9933667D01*
X4757595Y-9933667D01*
X4738548Y-9943190D01*
X4729024Y-9952714D01*
X4719500Y-9971762D01*
X4909976Y-9857476D02*
X4909976Y-9895571D01*
X4986167Y-9857476D02*
X4986167Y-9895571D01*
X5281405Y-10133667D02*
X5271881Y-10124143D01*
X5252833Y-10095571D01*
X5243310Y-10076524D01*
X5233786Y-10047952D01*
X5224262Y-10000333D01*
X5224262Y-9962238D01*
X5233786Y-9914619D01*
X5243310Y-9886048D01*
X5252833Y-9867000D01*
X5271881Y-9838429D01*
X5281405Y-9828905D01*
X5443310Y-9924143D02*
X5443310Y-10057476D01*
X5395690Y-9847952D02*
X5348071Y-9990810D01*
X5471881Y-9990810D01*
X5700452Y-10057476D02*
X5700452Y-9857476D01*
X5786167Y-10057476D02*
X5786167Y-9952714D01*
X5776643Y-9933667D01*
X5757595Y-9924143D01*
X5729024Y-9924143D01*
X5709976Y-9933667D01*
X5700452Y-9943190D01*
X5909976Y-10057476D02*
X5890928Y-10047952D01*
X5881405Y-10038429D01*
X5871881Y-10019381D01*
X5871881Y-9962238D01*
X5881405Y-9943190D01*
X5890928Y-9933667D01*
X5909976Y-9924143D01*
X5938548Y-9924143D01*
X5957595Y-9933667D01*
X5967119Y-9943190D01*
X5976643Y-9962238D01*
X5976643Y-10019381D01*
X5967119Y-10038429D01*
X5957595Y-10047952D01*
X5938548Y-10057476D01*
X5909976Y-10057476D01*
X6090928Y-10057476D02*
X6071881Y-10047952D01*
X6062357Y-10028905D01*
X6062357Y-9857476D01*
X6243309Y-10047952D02*
X6224262Y-10057476D01*
X6186167Y-10057476D01*
X6167119Y-10047952D01*
X6157595Y-10028905D01*
X6157595Y-9952714D01*
X6167119Y-9933667D01*
X6186167Y-9924143D01*
X6224262Y-9924143D01*
X6243309Y-9933667D01*
X6252833Y-9952714D01*
X6252833Y-9971762D01*
X6157595Y-9990810D01*
X6329024Y-10047952D02*
X6348071Y-10057476D01*
X6386167Y-10057476D01*
X6405214Y-10047952D01*
X6414738Y-10028905D01*
X6414738Y-10019381D01*
X6405214Y-10000333D01*
X6386167Y-9990810D01*
X6357595Y-9990810D01*
X6338548Y-9981286D01*
X6329024Y-9962238D01*
X6329024Y-9952714D01*
X6338548Y-9933667D01*
X6357595Y-9924143D01*
X6386167Y-9924143D01*
X6405214Y-9933667D01*
X6481405Y-10133667D02*
X6490928Y-10124143D01*
X6509976Y-10095571D01*
X6519500Y-10076524D01*
X6529024Y-10047952D01*
X6538548Y-10000333D01*
X6538548Y-9962238D01*
X6529024Y-9914619D01*
X6519500Y-9886048D01*
X6509976Y-9867000D01*
X6490928Y-9838429D01*
X6481405Y-9828905D01*
X6843309Y-10133667D02*
X6833786Y-10124143D01*
X6814738Y-10095571D01*
X6805214Y-10076524D01*
X6795690Y-10047952D01*
X6786167Y-10000333D01*
X6786167Y-9962238D01*
X6795690Y-9914619D01*
X6805214Y-9886048D01*
X6814738Y-9867000D01*
X6833786Y-9838429D01*
X6843309Y-9828905D01*
X6919500Y-9924143D02*
X6919500Y-10057476D01*
X6919500Y-9943190D02*
X6929024Y-9933667D01*
X6948071Y-9924143D01*
X6976643Y-9924143D01*
X6995690Y-9933667D01*
X7005214Y-9952714D01*
X7005214Y-10057476D01*
X7129024Y-10057476D02*
X7109976Y-10047952D01*
X7100452Y-10038429D01*
X7090928Y-10019381D01*
X7090928Y-9962238D01*
X7100452Y-9943190D01*
X7109976Y-9933667D01*
X7129024Y-9924143D01*
X7157595Y-9924143D01*
X7176643Y-9933667D01*
X7186167Y-9943190D01*
X7195690Y-9962238D01*
X7195690Y-10019381D01*
X7186167Y-10038429D01*
X7176643Y-10047952D01*
X7157595Y-10057476D01*
X7129024Y-10057476D01*
X7252833Y-9924143D02*
X7329024Y-9924143D01*
X7281405Y-9857476D02*
X7281405Y-10028905D01*
X7290928Y-10047952D01*
X7309976Y-10057476D01*
X7329024Y-10057476D01*
X7548071Y-9924143D02*
X7548071Y-10124143D01*
X7548071Y-9933667D02*
X7567119Y-9924143D01*
X7605214Y-9924143D01*
X7624262Y-9933667D01*
X7633786Y-9943190D01*
X7643309Y-9962238D01*
X7643309Y-10019381D01*
X7633786Y-10038429D01*
X7624262Y-10047952D01*
X7605214Y-10057476D01*
X7567119Y-10057476D01*
X7548071Y-10047952D01*
X7757595Y-10057476D02*
X7738548Y-10047952D01*
X7729024Y-10028905D01*
X7729024Y-9857476D01*
X7919500Y-10057476D02*
X7919500Y-9952714D01*
X7909976Y-9933667D01*
X7890928Y-9924143D01*
X7852833Y-9924143D01*
X7833786Y-9933667D01*
X7919500Y-10047952D02*
X7900452Y-10057476D01*
X7852833Y-10057476D01*
X7833786Y-10047952D01*
X7824262Y-10028905D01*
X7824262Y-10009857D01*
X7833786Y-9990810D01*
X7852833Y-9981286D01*
X7900452Y-9981286D01*
X7919500Y-9971762D01*
X7986167Y-9924143D02*
X8062357Y-9924143D01*
X8014738Y-9857476D02*
X8014738Y-10028905D01*
X8024262Y-10047952D01*
X8043309Y-10057476D01*
X8062357Y-10057476D01*
X8205214Y-10047952D02*
X8186167Y-10057476D01*
X8148071Y-10057476D01*
X8129024Y-10047952D01*
X8119500Y-10028905D01*
X8119500Y-9952714D01*
X8129024Y-9933667D01*
X8148071Y-9924143D01*
X8186167Y-9924143D01*
X8205214Y-9933667D01*
X8214738Y-9952714D01*
X8214738Y-9971762D01*
X8119500Y-9990810D01*
X8386167Y-10057476D02*
X8386167Y-9857476D01*
X8386167Y-10047952D02*
X8367119Y-10057476D01*
X8329024Y-10057476D01*
X8309976Y-10047952D01*
X8300452Y-10038429D01*
X8290928Y-10019381D01*
X8290928Y-9962238D01*
X8300452Y-9943190D01*
X8309976Y-9933667D01*
X8329024Y-9924143D01*
X8367119Y-9924143D01*
X8386167Y-9933667D01*
X8462357Y-10133667D02*
X8471881Y-10124143D01*
X8490929Y-10095571D01*
X8500452Y-10076524D01*
X8509976Y-10047952D01*
X8519500Y-10000333D01*
X8519500Y-9962238D01*
X8509976Y-9914619D01*
X8500452Y-9886048D01*
X8490929Y-9867000D01*
X8471881Y-9838429D01*
X8462357Y-9828905D01*
X1680211Y-10357711D02*
X1680211Y-10216289D01*
X1538789Y-10216289D01*
X1538789Y-10357711D01*
X1680211Y-10357711D01*
X1948071Y-10177476D02*
X2071881Y-10177476D01*
X2005214Y-10253667D01*
X2033786Y-10253667D01*
X2052833Y-10263190D01*
X2062357Y-10272714D01*
X2071881Y-10291762D01*
X2071881Y-10339381D01*
X2062357Y-10358429D01*
X2052833Y-10367952D01*
X2033786Y-10377476D01*
X1976643Y-10377476D01*
X1957595Y-10367952D01*
X1948071Y-10358429D01*
X2157595Y-10358429D02*
X2167119Y-10367952D01*
X2157595Y-10377476D01*
X2148071Y-10367952D01*
X2157595Y-10358429D01*
X2157595Y-10377476D01*
X2262357Y-10377476D02*
X2300452Y-10377476D01*
X2319500Y-10367952D01*
X2329024Y-10358429D01*
X2348071Y-10329857D01*
X2357595Y-10291762D01*
X2357595Y-10215571D01*
X2348071Y-10196524D01*
X2338548Y-10187000D01*
X2319500Y-10177476D01*
X2281405Y-10177476D01*
X2262357Y-10187000D01*
X2252833Y-10196524D01*
X2243310Y-10215571D01*
X2243310Y-10263190D01*
X2252833Y-10282238D01*
X2262357Y-10291762D01*
X2281405Y-10301286D01*
X2319500Y-10301286D01*
X2338548Y-10291762D01*
X2348071Y-10282238D01*
X2357595Y-10263190D01*
X2471881Y-10263190D02*
X2452833Y-10253667D01*
X2443310Y-10244143D01*
X2433786Y-10225095D01*
X2433786Y-10215571D01*
X2443310Y-10196524D01*
X2452833Y-10187000D01*
X2471881Y-10177476D01*
X2509976Y-10177476D01*
X2529024Y-10187000D01*
X2538548Y-10196524D01*
X2548071Y-10215571D01*
X2548071Y-10225095D01*
X2538548Y-10244143D01*
X2529024Y-10253667D01*
X2509976Y-10263190D01*
X2471881Y-10263190D01*
X2452833Y-10272714D01*
X2443310Y-10282238D01*
X2433786Y-10301286D01*
X2433786Y-10339381D01*
X2443310Y-10358429D01*
X2452833Y-10367952D01*
X2471881Y-10377476D01*
X2509976Y-10377476D01*
X2529024Y-10367952D01*
X2538548Y-10358429D01*
X2548071Y-10339381D01*
X2548071Y-10301286D01*
X2538548Y-10282238D01*
X2529024Y-10272714D01*
X2509976Y-10263190D01*
X2662357Y-10263190D02*
X2643310Y-10253667D01*
X2633786Y-10244143D01*
X2624262Y-10225095D01*
X2624262Y-10215571D01*
X2633786Y-10196524D01*
X2643310Y-10187000D01*
X2662357Y-10177476D01*
X2700452Y-10177476D01*
X2719500Y-10187000D01*
X2729024Y-10196524D01*
X2738548Y-10215571D01*
X2738548Y-10225095D01*
X2729024Y-10244143D01*
X2719500Y-10253667D01*
X2700452Y-10263190D01*
X2662357Y-10263190D01*
X2643310Y-10272714D01*
X2633786Y-10282238D01*
X2624262Y-10301286D01*
X2624262Y-10339381D01*
X2633786Y-10358429D01*
X2643310Y-10367952D01*
X2662357Y-10377476D01*
X2700452Y-10377476D01*
X2719500Y-10367952D01*
X2729024Y-10358429D01*
X2738548Y-10339381D01*
X2738548Y-10301286D01*
X2729024Y-10282238D01*
X2719500Y-10272714D01*
X2700452Y-10263190D01*
X2824262Y-10377476D02*
X2824262Y-10244143D01*
X2824262Y-10263190D02*
X2833786Y-10253667D01*
X2852833Y-10244143D01*
X2881405Y-10244143D01*
X2900452Y-10253667D01*
X2909976Y-10272714D01*
X2909976Y-10377476D01*
X2909976Y-10272714D02*
X2919500Y-10253667D01*
X2938548Y-10244143D01*
X2967119Y-10244143D01*
X2986167Y-10253667D01*
X2995690Y-10272714D01*
X2995690Y-10377476D01*
X3090928Y-10377476D02*
X3090928Y-10244143D01*
X3090928Y-10263190D02*
X3100452Y-10253667D01*
X3119500Y-10244143D01*
X3148071Y-10244143D01*
X3167119Y-10253667D01*
X3176643Y-10272714D01*
X3176643Y-10377476D01*
X3176643Y-10272714D02*
X3186167Y-10253667D01*
X3205214Y-10244143D01*
X3233786Y-10244143D01*
X3252833Y-10253667D01*
X3262357Y-10272714D01*
X3262357Y-10377476D01*
X3652833Y-10167952D02*
X3481405Y-10425095D01*
X3909976Y-10177476D02*
X3929024Y-10177476D01*
X3948071Y-10187000D01*
X3957595Y-10196524D01*
X3967119Y-10215571D01*
X3976643Y-10253667D01*
X3976643Y-10301286D01*
X3967119Y-10339381D01*
X3957595Y-10358429D01*
X3948071Y-10367952D01*
X3929024Y-10377476D01*
X3909976Y-10377476D01*
X3890928Y-10367952D01*
X3881405Y-10358429D01*
X3871881Y-10339381D01*
X3862357Y-10301286D01*
X3862357Y-10253667D01*
X3871881Y-10215571D01*
X3881405Y-10196524D01*
X3890928Y-10187000D01*
X3909976Y-10177476D01*
X4062357Y-10358429D02*
X4071881Y-10367952D01*
X4062357Y-10377476D01*
X4052833Y-10367952D01*
X4062357Y-10358429D01*
X4062357Y-10377476D01*
X4262357Y-10377476D02*
X4148071Y-10377476D01*
X4205214Y-10377476D02*
X4205214Y-10177476D01*
X4186167Y-10206048D01*
X4167119Y-10225095D01*
X4148071Y-10234619D01*
X4443310Y-10177476D02*
X4348071Y-10177476D01*
X4338548Y-10272714D01*
X4348071Y-10263190D01*
X4367119Y-10253667D01*
X4414738Y-10253667D01*
X4433786Y-10263190D01*
X4443310Y-10272714D01*
X4452833Y-10291762D01*
X4452833Y-10339381D01*
X4443310Y-10358429D01*
X4433786Y-10367952D01*
X4414738Y-10377476D01*
X4367119Y-10377476D01*
X4348071Y-10367952D01*
X4338548Y-10358429D01*
X4519500Y-10177476D02*
X4652833Y-10177476D01*
X4567119Y-10377476D01*
X4767119Y-10177476D02*
X4786167Y-10177476D01*
X4805214Y-10187000D01*
X4814738Y-10196524D01*
X4824262Y-10215571D01*
X4833786Y-10253667D01*
X4833786Y-10301286D01*
X4824262Y-10339381D01*
X4814738Y-10358429D01*
X4805214Y-10367952D01*
X4786167Y-10377476D01*
X4767119Y-10377476D01*
X4748071Y-10367952D01*
X4738548Y-10358429D01*
X4729024Y-10339381D01*
X4719500Y-10301286D01*
X4719500Y-10253667D01*
X4729024Y-10215571D01*
X4738548Y-10196524D01*
X4748071Y-10187000D01*
X4767119Y-10177476D01*
X4909976Y-10177476D02*
X4909976Y-10215571D01*
X4986167Y-10177476D02*
X4986167Y-10215571D01*
X5281405Y-10453667D02*
X5271881Y-10444143D01*
X5252833Y-10415571D01*
X5243310Y-10396524D01*
X5233786Y-10367952D01*
X5224262Y-10320333D01*
X5224262Y-10282238D01*
X5233786Y-10234619D01*
X5243310Y-10206048D01*
X5252833Y-10187000D01*
X5271881Y-10158429D01*
X5281405Y-10148905D01*
X5462357Y-10377476D02*
X5348071Y-10377476D01*
X5405214Y-10377476D02*
X5405214Y-10177476D01*
X5386167Y-10206048D01*
X5367119Y-10225095D01*
X5348071Y-10234619D01*
X5643309Y-10177476D02*
X5548071Y-10177476D01*
X5538548Y-10272714D01*
X5548071Y-10263190D01*
X5567119Y-10253667D01*
X5614738Y-10253667D01*
X5633786Y-10263190D01*
X5643309Y-10272714D01*
X5652833Y-10291762D01*
X5652833Y-10339381D01*
X5643309Y-10358429D01*
X5633786Y-10367952D01*
X5614738Y-10377476D01*
X5567119Y-10377476D01*
X5548071Y-10367952D01*
X5538548Y-10358429D01*
X5890928Y-10377476D02*
X5890928Y-10177476D01*
X5976643Y-10377476D02*
X5976643Y-10272714D01*
X5967119Y-10253667D01*
X5948071Y-10244143D01*
X5919500Y-10244143D01*
X5900452Y-10253667D01*
X5890928Y-10263190D01*
X6100452Y-10377476D02*
X6081405Y-10367952D01*
X6071881Y-10358429D01*
X6062357Y-10339381D01*
X6062357Y-10282238D01*
X6071881Y-10263190D01*
X6081405Y-10253667D01*
X6100452Y-10244143D01*
X6129024Y-10244143D01*
X6148071Y-10253667D01*
X6157595Y-10263190D01*
X6167119Y-10282238D01*
X6167119Y-10339381D01*
X6157595Y-10358429D01*
X6148071Y-10367952D01*
X6129024Y-10377476D01*
X6100452Y-10377476D01*
X6281405Y-10377476D02*
X6262357Y-10367952D01*
X6252833Y-10348905D01*
X6252833Y-10177476D01*
X6433786Y-10367952D02*
X6414738Y-10377476D01*
X6376643Y-10377476D01*
X6357595Y-10367952D01*
X6348071Y-10348905D01*
X6348071Y-10272714D01*
X6357595Y-10253667D01*
X6376643Y-10244143D01*
X6414738Y-10244143D01*
X6433786Y-10253667D01*
X6443309Y-10272714D01*
X6443309Y-10291762D01*
X6348071Y-10310810D01*
X6519500Y-10367952D02*
X6538548Y-10377476D01*
X6576643Y-10377476D01*
X6595690Y-10367952D01*
X6605214Y-10348905D01*
X6605214Y-10339381D01*
X6595690Y-10320333D01*
X6576643Y-10310810D01*
X6548071Y-10310810D01*
X6529024Y-10301286D01*
X6519500Y-10282238D01*
X6519500Y-10272714D01*
X6529024Y-10253667D01*
X6548071Y-10244143D01*
X6576643Y-10244143D01*
X6595690Y-10253667D01*
X6671881Y-10453667D02*
X6681405Y-10444143D01*
X6700452Y-10415571D01*
X6709976Y-10396524D01*
X6719500Y-10367952D01*
X6729024Y-10320333D01*
X6729024Y-10282238D01*
X6719500Y-10234619D01*
X6709976Y-10206048D01*
X6700452Y-10187000D01*
X6681405Y-10158429D01*
X6671881Y-10148905D01*
X7033786Y-10453667D02*
X7024262Y-10444143D01*
X7005214Y-10415571D01*
X6995690Y-10396524D01*
X6986167Y-10367952D01*
X6976643Y-10320333D01*
X6976643Y-10282238D01*
X6986167Y-10234619D01*
X6995690Y-10206048D01*
X7005214Y-10187000D01*
X7024262Y-10158429D01*
X7033786Y-10148905D01*
X7109976Y-10244143D02*
X7109976Y-10377476D01*
X7109976Y-10263190D02*
X7119500Y-10253667D01*
X7138548Y-10244143D01*
X7167119Y-10244143D01*
X7186167Y-10253667D01*
X7195690Y-10272714D01*
X7195690Y-10377476D01*
X7319500Y-10377476D02*
X7300452Y-10367952D01*
X7290928Y-10358429D01*
X7281405Y-10339381D01*
X7281405Y-10282238D01*
X7290928Y-10263190D01*
X7300452Y-10253667D01*
X7319500Y-10244143D01*
X7348071Y-10244143D01*
X7367119Y-10253667D01*
X7376643Y-10263190D01*
X7386167Y-10282238D01*
X7386167Y-10339381D01*
X7376643Y-10358429D01*
X7367119Y-10367952D01*
X7348071Y-10377476D01*
X7319500Y-10377476D01*
X7443309Y-10244143D02*
X7519500Y-10244143D01*
X7471881Y-10177476D02*
X7471881Y-10348905D01*
X7481405Y-10367952D01*
X7500452Y-10377476D01*
X7519500Y-10377476D01*
X7738548Y-10244143D02*
X7738548Y-10444143D01*
X7738548Y-10253667D02*
X7757595Y-10244143D01*
X7795690Y-10244143D01*
X7814738Y-10253667D01*
X7824262Y-10263190D01*
X7833786Y-10282238D01*
X7833786Y-10339381D01*
X7824262Y-10358429D01*
X7814738Y-10367952D01*
X7795690Y-10377476D01*
X7757595Y-10377476D01*
X7738548Y-10367952D01*
X7948071Y-10377476D02*
X7929024Y-10367952D01*
X7919500Y-10348905D01*
X7919500Y-10177476D01*
X8109976Y-10377476D02*
X8109976Y-10272714D01*
X8100452Y-10253667D01*
X8081405Y-10244143D01*
X8043309Y-10244143D01*
X8024262Y-10253667D01*
X8109976Y-10367952D02*
X8090928Y-10377476D01*
X8043309Y-10377476D01*
X8024262Y-10367952D01*
X8014738Y-10348905D01*
X8014738Y-10329857D01*
X8024262Y-10310810D01*
X8043309Y-10301286D01*
X8090928Y-10301286D01*
X8109976Y-10291762D01*
X8176643Y-10244143D02*
X8252833Y-10244143D01*
X8205214Y-10177476D02*
X8205214Y-10348905D01*
X8214738Y-10367952D01*
X8233786Y-10377476D01*
X8252833Y-10377476D01*
X8395690Y-10367952D02*
X8376643Y-10377476D01*
X8338548Y-10377476D01*
X8319500Y-10367952D01*
X8309976Y-10348905D01*
X8309976Y-10272714D01*
X8319500Y-10253667D01*
X8338548Y-10244143D01*
X8376643Y-10244143D01*
X8395690Y-10253667D01*
X8405214Y-10272714D01*
X8405214Y-10291762D01*
X8309976Y-10310810D01*
X8576643Y-10377476D02*
X8576643Y-10177476D01*
X8576643Y-10367952D02*
X8557595Y-10377476D01*
X8519500Y-10377476D01*
X8500452Y-10367952D01*
X8490929Y-10358429D01*
X8481405Y-10339381D01*
X8481405Y-10282238D01*
X8490929Y-10263190D01*
X8500452Y-10253667D01*
X8519500Y-10244143D01*
X8557595Y-10244143D01*
X8576643Y-10253667D01*
X8652833Y-10453667D02*
X8662357Y-10444143D01*
X8681405Y-10415571D01*
X8690929Y-10396524D01*
X8700452Y-10367952D01*
X8709976Y-10320333D01*
X8709976Y-10282238D01*
X8700452Y-10234619D01*
X8690929Y-10206048D01*
X8681405Y-10187000D01*
X8662357Y-10158429D01*
X8652833Y-10148905D01*
M02*
