%TF.GenerationSoftware,KiCad,Pcbnew,(6.0.7)*%
%TF.CreationDate,2023-02-20T15:38:16+01:00*%
%TF.ProjectId,Soundboard,536f756e-6462-46f6-9172-642e6b696361,rev?*%
%TF.SameCoordinates,Original*%
%TF.FileFunction,Profile,NP*%
%FSLAX46Y46*%
G04 Gerber Fmt 4.6, Leading zero omitted, Abs format (unit mm)*
G04 Created by KiCad (PCBNEW (6.0.7)) date 2023-02-20 15:38:16*
%MOMM*%
%LPD*%
G01*
G04 APERTURE LIST*
%TA.AperFunction,Profile*%
%ADD10C,0.100000*%
%TD*%
%TA.AperFunction,Profile*%
%ADD11C,0.080000*%
%TD*%
G04 APERTURE END LIST*
D10*
X155575000Y-27940000D02*
X155575000Y-82550000D01*
X17145000Y-82550000D02*
G75*
G03*
X22225000Y-87630000I5080000J0D01*
G01*
X22225000Y-22860000D02*
X150495000Y-22860000D01*
X155575000Y-27940000D02*
G75*
G03*
X150495000Y-22860000I-5080000J0D01*
G01*
X150495000Y-87630000D02*
G75*
G03*
X155575000Y-82550000I0J5080000D01*
G01*
X17145000Y-27940000D02*
X17145000Y-82550000D01*
X150495000Y-87630000D02*
X22225000Y-87630000D01*
X22225000Y-22860000D02*
G75*
G03*
X17145000Y-27940000I0J-5080000D01*
G01*
D11*
%TO.C,J1*%
X137764999Y-28767500D02*
X137764999Y-28567500D01*
X140964999Y-28917500D02*
X143058781Y-28917500D01*
X136414999Y-27196679D02*
X136414999Y-22837500D01*
X145514999Y-27196679D02*
X145514999Y-22837500D01*
X144164999Y-28767500D02*
X144164999Y-28567500D01*
X140964999Y-28917500D02*
X138871217Y-28917500D01*
X137565000Y-28367500D02*
X136414999Y-28367500D01*
X144364998Y-28367500D02*
X145514999Y-28367500D01*
X137765001Y-28767500D02*
G75*
G03*
X138698012Y-29017500I499999J0D01*
G01*
X136272143Y-27388344D02*
G75*
G03*
X136414999Y-27196679I-57173J191684D01*
G01*
X145514999Y-28367500D02*
G75*
G03*
X145657856Y-27388343I-1J500000D01*
G01*
X136272142Y-27388342D02*
G75*
G03*
X136414999Y-28367501I142858J-479158D01*
G01*
X144364998Y-28367500D02*
G75*
G03*
X144164998Y-28567500I1J-200001D01*
G01*
X143231986Y-29017500D02*
G75*
G03*
X143058781Y-28917500I-173205J-100000D01*
G01*
X143231986Y-29017500D02*
G75*
G03*
X144164999Y-28767500I433013J250000D01*
G01*
X137764999Y-28567500D02*
G75*
G03*
X137565000Y-28367501I-199999J0D01*
G01*
X138871217Y-28917515D02*
G75*
G03*
X138698012Y-29017500I-17J-199985D01*
G01*
X145514999Y-27196679D02*
G75*
G03*
X145657856Y-27388342I199999J-1D01*
G01*
%TD*%
M02*
