%TF.GenerationSoftware,KiCad,Pcbnew,(6.0.7)*%
%TF.CreationDate,2023-02-20T15:39:00+01:00*%
%TF.ProjectId,Soundboard,536f756e-6462-46f6-9172-642e6b696361,rev?*%
%TF.SameCoordinates,Original*%
%TF.FileFunction,Drillmap*%
%TF.FilePolarity,Positive*%
%FSLAX45Y45*%
G04 Gerber Fmt 4.5, Leading zero omitted, Abs format (unit mm)*
G04 Created by KiCad (PCBNEW (6.0.7)) date 2023-02-20 15:39:00*
%MOMM*%
%LPD*%
G01*
G04 APERTURE LIST*
%ADD10C,0.100000*%
%ADD11C,0.200000*%
%ADD12C,0.040000*%
%ADD13C,0.060000*%
%ADD14C,0.152400*%
G04 APERTURE END LIST*
D10*
X15557500Y-2794000D02*
X15557500Y-8255000D01*
X1714500Y-8255000D02*
G75*
G03*
X2222500Y-8763000I508000J0D01*
G01*
X2222500Y-2286000D02*
X15049500Y-2286000D01*
X15557500Y-2794000D02*
G75*
G03*
X15049500Y-2286000I-508000J0D01*
G01*
X15049500Y-8763000D02*
G75*
G03*
X15557500Y-8255000I0J508000D01*
G01*
X1714500Y-2794000D02*
X1714500Y-8255000D01*
X15049500Y-8763000D02*
X2222500Y-8763000D01*
X2222500Y-2286000D02*
G75*
G03*
X1714500Y-2794000I0J-508000D01*
G01*
D11*
D12*
X13505500Y-3345500D02*
X13545500Y-3385500D01*
X13545500Y-3345500D02*
X13505500Y-3385500D01*
X13505500Y-6774500D02*
X13545500Y-6814500D01*
X13545500Y-6774500D02*
X13505500Y-6814500D01*
X13505500Y-6901500D02*
X13545500Y-6941500D01*
X13545500Y-6901500D02*
X13505500Y-6941500D01*
X13505500Y-7028500D02*
X13545500Y-7068500D01*
X13545500Y-7028500D02*
X13505500Y-7068500D01*
X13505500Y-7155500D02*
X13545500Y-7195500D01*
X13545500Y-7155500D02*
X13505500Y-7195500D01*
X13505500Y-7282500D02*
X13545500Y-7322500D01*
X13545500Y-7282500D02*
X13505500Y-7322500D01*
X13569000Y-5504500D02*
X13609000Y-5544500D01*
X13609000Y-5504500D02*
X13569000Y-5544500D01*
X13578000Y-6575000D02*
X13618000Y-6615000D01*
X13618000Y-6575000D02*
X13578000Y-6615000D01*
X13759500Y-3282000D02*
X13799500Y-3322000D01*
X13799500Y-3282000D02*
X13759500Y-3322000D01*
X13759500Y-6812550D02*
X13799500Y-6852550D01*
X13799500Y-6812550D02*
X13759500Y-6852550D01*
X13759500Y-7600000D02*
X13799500Y-7640000D01*
X13799500Y-7600000D02*
X13759500Y-7640000D01*
X13973450Y-3282000D02*
X14013450Y-3322000D01*
X14013450Y-3282000D02*
X13973450Y-3322000D01*
X14077000Y-6139500D02*
X14117000Y-6179500D01*
X14117000Y-6139500D02*
X14077000Y-6179500D01*
X14140500Y-3218500D02*
X14180500Y-3258500D01*
X14180500Y-3218500D02*
X14140500Y-3258500D01*
X14204000Y-7790500D02*
X14244000Y-7830500D01*
X14244000Y-7790500D02*
X14204000Y-7830500D01*
X14331000Y-3218500D02*
X14371000Y-3258500D01*
X14371000Y-3218500D02*
X14331000Y-3258500D01*
X14331000Y-7917500D02*
X14371000Y-7957500D01*
X14371000Y-7917500D02*
X14331000Y-7957500D01*
X14458000Y-3218500D02*
X14498000Y-3258500D01*
X14498000Y-3218500D02*
X14458000Y-3258500D01*
X14458000Y-3980500D02*
X14498000Y-4020500D01*
X14498000Y-3980500D02*
X14458000Y-4020500D01*
X14521500Y-6139500D02*
X14561500Y-6179500D01*
X14561500Y-6139500D02*
X14521500Y-6179500D01*
X14775500Y-6139500D02*
X14815500Y-6179500D01*
X14815500Y-6139500D02*
X14775500Y-6179500D01*
X14902500Y-3345500D02*
X14942500Y-3385500D01*
X14942500Y-3345500D02*
X14902500Y-3385500D01*
X14997750Y-7695250D02*
X15037750Y-7735250D01*
X15037750Y-7695250D02*
X14997750Y-7735250D01*
X15156500Y-3345500D02*
X15196500Y-3385500D01*
X15196500Y-3345500D02*
X15156500Y-3385500D01*
X15220000Y-6393500D02*
X15260000Y-6433500D01*
X15260000Y-6393500D02*
X15220000Y-6433500D01*
X15347000Y-6393500D02*
X15387000Y-6433500D01*
X15387000Y-6393500D02*
X15347000Y-6433500D01*
X15347000Y-7473000D02*
X15387000Y-7513000D01*
X15387000Y-7473000D02*
X15347000Y-7513000D01*
D13*
X13568500Y-2919250D02*
G75*
G03*
X13568500Y-2919250I-30000J0D01*
G01*
D11*
X13508500Y-2866750D02*
X13508500Y-2971750D01*
X13568500Y-2866750D02*
X13568500Y-2971750D01*
X13508500Y-2971750D02*
G75*
G03*
X13568500Y-2971750I30000J0D01*
G01*
X13568500Y-2866750D02*
G75*
G03*
X13508500Y-2866750I-30000J0D01*
G01*
D13*
X13570500Y-2459250D02*
G75*
G03*
X13570500Y-2459250I-30000J0D01*
G01*
D11*
X13510500Y-2406750D02*
X13510500Y-2511750D01*
X13570500Y-2406750D02*
X13570500Y-2511750D01*
X13510500Y-2511750D02*
G75*
G03*
X13570500Y-2511750I30000J0D01*
G01*
X13570500Y-2406750D02*
G75*
G03*
X13510500Y-2406750I-30000J0D01*
G01*
D13*
X14683500Y-2919250D02*
G75*
G03*
X14683500Y-2919250I-30000J0D01*
G01*
D11*
X14623500Y-2866750D02*
X14623500Y-2971750D01*
X14683500Y-2866750D02*
X14683500Y-2971750D01*
X14623500Y-2971750D02*
G75*
G03*
X14683500Y-2971750I30000J0D01*
G01*
X14683500Y-2866750D02*
G75*
G03*
X14623500Y-2866750I-30000J0D01*
G01*
D13*
X14685500Y-2459250D02*
G75*
G03*
X14685500Y-2459250I-30000J0D01*
G01*
D11*
X14625500Y-2406750D02*
X14625500Y-2511750D01*
X14685500Y-2406750D02*
X14685500Y-2511750D01*
X14625500Y-2511750D02*
G75*
G03*
X14685500Y-2511750I30000J0D01*
G01*
X14685500Y-2406750D02*
G75*
G03*
X14625500Y-2406750I-30000J0D01*
G01*
D14*
X3365500Y-3225800D02*
X3365500Y-3378200D01*
X3289300Y-3302000D02*
X3441700Y-3302000D01*
X3365500Y-5194300D02*
X3365500Y-5346700D01*
X3289300Y-5270500D02*
X3441700Y-5270500D01*
X3365500Y-7162800D02*
X3365500Y-7315200D01*
X3289300Y-7239000D02*
X3441700Y-7239000D01*
X4000500Y-2971800D02*
X4000500Y-3124200D01*
X3924300Y-3048000D02*
X4076700Y-3048000D01*
X4000500Y-4940300D02*
X4000500Y-5092700D01*
X3924300Y-5016500D02*
X4076700Y-5016500D01*
X4000500Y-6908800D02*
X4000500Y-7061200D01*
X3924300Y-6985000D02*
X4076700Y-6985000D01*
X5334000Y-3225800D02*
X5334000Y-3378200D01*
X5257800Y-3302000D02*
X5410200Y-3302000D01*
X5334000Y-5194300D02*
X5334000Y-5346700D01*
X5257800Y-5270500D02*
X5410200Y-5270500D01*
X5334000Y-7162800D02*
X5334000Y-7315200D01*
X5257800Y-7239000D02*
X5410200Y-7239000D01*
X5969000Y-2971800D02*
X5969000Y-3124200D01*
X5892800Y-3048000D02*
X6045200Y-3048000D01*
X5969000Y-4940300D02*
X5969000Y-5092700D01*
X5892800Y-5016500D02*
X6045200Y-5016500D01*
X5969000Y-6908800D02*
X5969000Y-7061200D01*
X5892800Y-6985000D02*
X6045200Y-6985000D01*
X7302500Y-3225800D02*
X7302500Y-3378200D01*
X7226300Y-3302000D02*
X7378700Y-3302000D01*
X7302500Y-5194300D02*
X7302500Y-5346700D01*
X7226300Y-5270500D02*
X7378700Y-5270500D01*
X7302500Y-7162800D02*
X7302500Y-7315200D01*
X7226300Y-7239000D02*
X7378700Y-7239000D01*
X7937500Y-2971800D02*
X7937500Y-3124200D01*
X7861300Y-3048000D02*
X8013700Y-3048000D01*
X7937500Y-4940300D02*
X7937500Y-5092700D01*
X7861300Y-5016500D02*
X8013700Y-5016500D01*
X7937500Y-6908800D02*
X7937500Y-7061200D01*
X7861300Y-6985000D02*
X8013700Y-6985000D01*
X9271000Y-3225800D02*
X9271000Y-3378200D01*
X9194800Y-3302000D02*
X9347200Y-3302000D01*
X9271000Y-5194300D02*
X9271000Y-5346700D01*
X9194800Y-5270500D02*
X9347200Y-5270500D01*
X9271000Y-7162800D02*
X9271000Y-7315200D01*
X9194800Y-7239000D02*
X9347200Y-7239000D01*
X9906000Y-2971800D02*
X9906000Y-3124200D01*
X9829800Y-3048000D02*
X9982200Y-3048000D01*
X9906000Y-4940300D02*
X9906000Y-5092700D01*
X9829800Y-5016500D02*
X9982200Y-5016500D01*
X9906000Y-6908800D02*
X9906000Y-7061200D01*
X9829800Y-6985000D02*
X9982200Y-6985000D01*
X11239500Y-3225800D02*
X11239500Y-3378200D01*
X11163300Y-3302000D02*
X11315700Y-3302000D01*
X11239500Y-5194300D02*
X11239500Y-5346700D01*
X11163300Y-5270500D02*
X11315700Y-5270500D01*
X11239500Y-7162800D02*
X11239500Y-7315200D01*
X11163300Y-7239000D02*
X11315700Y-7239000D01*
X11874500Y-2971800D02*
X11874500Y-3124200D01*
X11798300Y-3048000D02*
X11950700Y-3048000D01*
X11874500Y-4940300D02*
X11874500Y-5092700D01*
X11798300Y-5016500D02*
X11950700Y-5016500D01*
X11874500Y-6908800D02*
X11874500Y-7061200D01*
X11798300Y-6985000D02*
X11950700Y-6985000D01*
D11*
X1967119Y-9078476D02*
X1967119Y-8878476D01*
X2014738Y-8878476D01*
X2043309Y-8888000D01*
X2062357Y-8907048D01*
X2071881Y-8926095D01*
X2081405Y-8964190D01*
X2081405Y-8992762D01*
X2071881Y-9030857D01*
X2062357Y-9049905D01*
X2043309Y-9068952D01*
X2014738Y-9078476D01*
X1967119Y-9078476D01*
X2167119Y-9078476D02*
X2167119Y-8945143D01*
X2167119Y-8983238D02*
X2176643Y-8964190D01*
X2186167Y-8954667D01*
X2205214Y-8945143D01*
X2224262Y-8945143D01*
X2290929Y-9078476D02*
X2290929Y-8945143D01*
X2290929Y-8878476D02*
X2281405Y-8888000D01*
X2290929Y-8897524D01*
X2300452Y-8888000D01*
X2290929Y-8878476D01*
X2290929Y-8897524D01*
X2414738Y-9078476D02*
X2395690Y-9068952D01*
X2386167Y-9049905D01*
X2386167Y-8878476D01*
X2519500Y-9078476D02*
X2500452Y-9068952D01*
X2490929Y-9049905D01*
X2490929Y-8878476D01*
X2748071Y-9078476D02*
X2748071Y-8878476D01*
X2814738Y-9021333D01*
X2881405Y-8878476D01*
X2881405Y-9078476D01*
X3062357Y-9078476D02*
X3062357Y-8973714D01*
X3052833Y-8954667D01*
X3033786Y-8945143D01*
X2995690Y-8945143D01*
X2976643Y-8954667D01*
X3062357Y-9068952D02*
X3043309Y-9078476D01*
X2995690Y-9078476D01*
X2976643Y-9068952D01*
X2967119Y-9049905D01*
X2967119Y-9030857D01*
X2976643Y-9011810D01*
X2995690Y-9002286D01*
X3043309Y-9002286D01*
X3062357Y-8992762D01*
X3157595Y-8945143D02*
X3157595Y-9145143D01*
X3157595Y-8954667D02*
X3176643Y-8945143D01*
X3214738Y-8945143D01*
X3233786Y-8954667D01*
X3243309Y-8964190D01*
X3252833Y-8983238D01*
X3252833Y-9040381D01*
X3243309Y-9059429D01*
X3233786Y-9068952D01*
X3214738Y-9078476D01*
X3176643Y-9078476D01*
X3157595Y-9068952D01*
X3338548Y-9059429D02*
X3348071Y-9068952D01*
X3338548Y-9078476D01*
X3329024Y-9068952D01*
X3338548Y-9059429D01*
X3338548Y-9078476D01*
X3338548Y-8954667D02*
X3348071Y-8964190D01*
X3338548Y-8973714D01*
X3329024Y-8964190D01*
X3338548Y-8954667D01*
X3338548Y-8973714D01*
D12*
X1669500Y-9388000D02*
X1709500Y-9428000D01*
X1709500Y-9388000D02*
X1669500Y-9428000D01*
D11*
X2005214Y-9298476D02*
X2024262Y-9298476D01*
X2043309Y-9308000D01*
X2052833Y-9317524D01*
X2062357Y-9336571D01*
X2071881Y-9374667D01*
X2071881Y-9422286D01*
X2062357Y-9460381D01*
X2052833Y-9479429D01*
X2043309Y-9488952D01*
X2024262Y-9498476D01*
X2005214Y-9498476D01*
X1986167Y-9488952D01*
X1976643Y-9479429D01*
X1967119Y-9460381D01*
X1957595Y-9422286D01*
X1957595Y-9374667D01*
X1967119Y-9336571D01*
X1976643Y-9317524D01*
X1986167Y-9308000D01*
X2005214Y-9298476D01*
X2157595Y-9479429D02*
X2167119Y-9488952D01*
X2157595Y-9498476D01*
X2148071Y-9488952D01*
X2157595Y-9479429D01*
X2157595Y-9498476D01*
X2338548Y-9365143D02*
X2338548Y-9498476D01*
X2290929Y-9288952D02*
X2243310Y-9431810D01*
X2367119Y-9431810D01*
X2481405Y-9298476D02*
X2500452Y-9298476D01*
X2519500Y-9308000D01*
X2529024Y-9317524D01*
X2538548Y-9336571D01*
X2548071Y-9374667D01*
X2548071Y-9422286D01*
X2538548Y-9460381D01*
X2529024Y-9479429D01*
X2519500Y-9488952D01*
X2500452Y-9498476D01*
X2481405Y-9498476D01*
X2462357Y-9488952D01*
X2452833Y-9479429D01*
X2443310Y-9460381D01*
X2433786Y-9422286D01*
X2433786Y-9374667D01*
X2443310Y-9336571D01*
X2452833Y-9317524D01*
X2462357Y-9308000D01*
X2481405Y-9298476D01*
X2671881Y-9298476D02*
X2690929Y-9298476D01*
X2709976Y-9308000D01*
X2719500Y-9317524D01*
X2729024Y-9336571D01*
X2738548Y-9374667D01*
X2738548Y-9422286D01*
X2729024Y-9460381D01*
X2719500Y-9479429D01*
X2709976Y-9488952D01*
X2690929Y-9498476D01*
X2671881Y-9498476D01*
X2652833Y-9488952D01*
X2643310Y-9479429D01*
X2633786Y-9460381D01*
X2624262Y-9422286D01*
X2624262Y-9374667D01*
X2633786Y-9336571D01*
X2643310Y-9317524D01*
X2652833Y-9308000D01*
X2671881Y-9298476D01*
X2824262Y-9498476D02*
X2824262Y-9365143D01*
X2824262Y-9384190D02*
X2833786Y-9374667D01*
X2852833Y-9365143D01*
X2881405Y-9365143D01*
X2900452Y-9374667D01*
X2909976Y-9393714D01*
X2909976Y-9498476D01*
X2909976Y-9393714D02*
X2919500Y-9374667D01*
X2938548Y-9365143D01*
X2967119Y-9365143D01*
X2986167Y-9374667D01*
X2995690Y-9393714D01*
X2995690Y-9498476D01*
X3090928Y-9498476D02*
X3090928Y-9365143D01*
X3090928Y-9384190D02*
X3100452Y-9374667D01*
X3119500Y-9365143D01*
X3148071Y-9365143D01*
X3167119Y-9374667D01*
X3176643Y-9393714D01*
X3176643Y-9498476D01*
X3176643Y-9393714D02*
X3186167Y-9374667D01*
X3205214Y-9365143D01*
X3233786Y-9365143D01*
X3252833Y-9374667D01*
X3262357Y-9393714D01*
X3262357Y-9498476D01*
X3652833Y-9288952D02*
X3481405Y-9546095D01*
X3909976Y-9298476D02*
X3929024Y-9298476D01*
X3948071Y-9308000D01*
X3957595Y-9317524D01*
X3967119Y-9336571D01*
X3976643Y-9374667D01*
X3976643Y-9422286D01*
X3967119Y-9460381D01*
X3957595Y-9479429D01*
X3948071Y-9488952D01*
X3929024Y-9498476D01*
X3909976Y-9498476D01*
X3890928Y-9488952D01*
X3881405Y-9479429D01*
X3871881Y-9460381D01*
X3862357Y-9422286D01*
X3862357Y-9374667D01*
X3871881Y-9336571D01*
X3881405Y-9317524D01*
X3890928Y-9308000D01*
X3909976Y-9298476D01*
X4062357Y-9479429D02*
X4071881Y-9488952D01*
X4062357Y-9498476D01*
X4052833Y-9488952D01*
X4062357Y-9479429D01*
X4062357Y-9498476D01*
X4195690Y-9298476D02*
X4214738Y-9298476D01*
X4233786Y-9308000D01*
X4243310Y-9317524D01*
X4252833Y-9336571D01*
X4262357Y-9374667D01*
X4262357Y-9422286D01*
X4252833Y-9460381D01*
X4243310Y-9479429D01*
X4233786Y-9488952D01*
X4214738Y-9498476D01*
X4195690Y-9498476D01*
X4176643Y-9488952D01*
X4167119Y-9479429D01*
X4157595Y-9460381D01*
X4148071Y-9422286D01*
X4148071Y-9374667D01*
X4157595Y-9336571D01*
X4167119Y-9317524D01*
X4176643Y-9308000D01*
X4195690Y-9298476D01*
X4452833Y-9498476D02*
X4338548Y-9498476D01*
X4395690Y-9498476D02*
X4395690Y-9298476D01*
X4376643Y-9327048D01*
X4357595Y-9346095D01*
X4338548Y-9355619D01*
X4633786Y-9298476D02*
X4538548Y-9298476D01*
X4529024Y-9393714D01*
X4538548Y-9384190D01*
X4557595Y-9374667D01*
X4605214Y-9374667D01*
X4624262Y-9384190D01*
X4633786Y-9393714D01*
X4643310Y-9412762D01*
X4643310Y-9460381D01*
X4633786Y-9479429D01*
X4624262Y-9488952D01*
X4605214Y-9498476D01*
X4557595Y-9498476D01*
X4538548Y-9488952D01*
X4529024Y-9479429D01*
X4709976Y-9298476D02*
X4843310Y-9298476D01*
X4757595Y-9498476D01*
X4909976Y-9298476D02*
X4909976Y-9336571D01*
X4986167Y-9298476D02*
X4986167Y-9336571D01*
X5281405Y-9574667D02*
X5271881Y-9565143D01*
X5252833Y-9536571D01*
X5243310Y-9517524D01*
X5233786Y-9488952D01*
X5224262Y-9441333D01*
X5224262Y-9403238D01*
X5233786Y-9355619D01*
X5243310Y-9327048D01*
X5252833Y-9308000D01*
X5271881Y-9279429D01*
X5281405Y-9269905D01*
X5348071Y-9317524D02*
X5357595Y-9308000D01*
X5376643Y-9298476D01*
X5424262Y-9298476D01*
X5443310Y-9308000D01*
X5452833Y-9317524D01*
X5462357Y-9336571D01*
X5462357Y-9355619D01*
X5452833Y-9384190D01*
X5338548Y-9498476D01*
X5462357Y-9498476D01*
X5529024Y-9298476D02*
X5662357Y-9298476D01*
X5576643Y-9498476D01*
X5890928Y-9498476D02*
X5890928Y-9298476D01*
X5976643Y-9498476D02*
X5976643Y-9393714D01*
X5967119Y-9374667D01*
X5948071Y-9365143D01*
X5919500Y-9365143D01*
X5900452Y-9374667D01*
X5890928Y-9384190D01*
X6100452Y-9498476D02*
X6081405Y-9488952D01*
X6071881Y-9479429D01*
X6062357Y-9460381D01*
X6062357Y-9403238D01*
X6071881Y-9384190D01*
X6081405Y-9374667D01*
X6100452Y-9365143D01*
X6129024Y-9365143D01*
X6148071Y-9374667D01*
X6157595Y-9384190D01*
X6167119Y-9403238D01*
X6167119Y-9460381D01*
X6157595Y-9479429D01*
X6148071Y-9488952D01*
X6129024Y-9498476D01*
X6100452Y-9498476D01*
X6281405Y-9498476D02*
X6262357Y-9488952D01*
X6252833Y-9469905D01*
X6252833Y-9298476D01*
X6433786Y-9488952D02*
X6414738Y-9498476D01*
X6376643Y-9498476D01*
X6357595Y-9488952D01*
X6348071Y-9469905D01*
X6348071Y-9393714D01*
X6357595Y-9374667D01*
X6376643Y-9365143D01*
X6414738Y-9365143D01*
X6433786Y-9374667D01*
X6443309Y-9393714D01*
X6443309Y-9412762D01*
X6348071Y-9431810D01*
X6519500Y-9488952D02*
X6538548Y-9498476D01*
X6576643Y-9498476D01*
X6595690Y-9488952D01*
X6605214Y-9469905D01*
X6605214Y-9460381D01*
X6595690Y-9441333D01*
X6576643Y-9431810D01*
X6548071Y-9431810D01*
X6529024Y-9422286D01*
X6519500Y-9403238D01*
X6519500Y-9393714D01*
X6529024Y-9374667D01*
X6548071Y-9365143D01*
X6576643Y-9365143D01*
X6595690Y-9374667D01*
X6671881Y-9574667D02*
X6681405Y-9565143D01*
X6700452Y-9536571D01*
X6709976Y-9517524D01*
X6719500Y-9488952D01*
X6729024Y-9441333D01*
X6729024Y-9403238D01*
X6719500Y-9355619D01*
X6709976Y-9327048D01*
X6700452Y-9308000D01*
X6681405Y-9279429D01*
X6671881Y-9269905D01*
D13*
X1709500Y-9672000D02*
G75*
G03*
X1709500Y-9672000I-30000J0D01*
G01*
D11*
X2005214Y-9562476D02*
X2024262Y-9562476D01*
X2043309Y-9572000D01*
X2052833Y-9581524D01*
X2062357Y-9600571D01*
X2071881Y-9638667D01*
X2071881Y-9686286D01*
X2062357Y-9724381D01*
X2052833Y-9743429D01*
X2043309Y-9752952D01*
X2024262Y-9762476D01*
X2005214Y-9762476D01*
X1986167Y-9752952D01*
X1976643Y-9743429D01*
X1967119Y-9724381D01*
X1957595Y-9686286D01*
X1957595Y-9638667D01*
X1967119Y-9600571D01*
X1976643Y-9581524D01*
X1986167Y-9572000D01*
X2005214Y-9562476D01*
X2157595Y-9743429D02*
X2167119Y-9752952D01*
X2157595Y-9762476D01*
X2148071Y-9752952D01*
X2157595Y-9743429D01*
X2157595Y-9762476D01*
X2338548Y-9562476D02*
X2300452Y-9562476D01*
X2281405Y-9572000D01*
X2271881Y-9581524D01*
X2252833Y-9610095D01*
X2243310Y-9648190D01*
X2243310Y-9724381D01*
X2252833Y-9743429D01*
X2262357Y-9752952D01*
X2281405Y-9762476D01*
X2319500Y-9762476D01*
X2338548Y-9752952D01*
X2348071Y-9743429D01*
X2357595Y-9724381D01*
X2357595Y-9676762D01*
X2348071Y-9657714D01*
X2338548Y-9648190D01*
X2319500Y-9638667D01*
X2281405Y-9638667D01*
X2262357Y-9648190D01*
X2252833Y-9657714D01*
X2243310Y-9676762D01*
X2481405Y-9562476D02*
X2500452Y-9562476D01*
X2519500Y-9572000D01*
X2529024Y-9581524D01*
X2538548Y-9600571D01*
X2548071Y-9638667D01*
X2548071Y-9686286D01*
X2538548Y-9724381D01*
X2529024Y-9743429D01*
X2519500Y-9752952D01*
X2500452Y-9762476D01*
X2481405Y-9762476D01*
X2462357Y-9752952D01*
X2452833Y-9743429D01*
X2443310Y-9724381D01*
X2433786Y-9686286D01*
X2433786Y-9638667D01*
X2443310Y-9600571D01*
X2452833Y-9581524D01*
X2462357Y-9572000D01*
X2481405Y-9562476D01*
X2671881Y-9562476D02*
X2690929Y-9562476D01*
X2709976Y-9572000D01*
X2719500Y-9581524D01*
X2729024Y-9600571D01*
X2738548Y-9638667D01*
X2738548Y-9686286D01*
X2729024Y-9724381D01*
X2719500Y-9743429D01*
X2709976Y-9752952D01*
X2690929Y-9762476D01*
X2671881Y-9762476D01*
X2652833Y-9752952D01*
X2643310Y-9743429D01*
X2633786Y-9724381D01*
X2624262Y-9686286D01*
X2624262Y-9638667D01*
X2633786Y-9600571D01*
X2643310Y-9581524D01*
X2652833Y-9572000D01*
X2671881Y-9562476D01*
X2824262Y-9762476D02*
X2824262Y-9629143D01*
X2824262Y-9648190D02*
X2833786Y-9638667D01*
X2852833Y-9629143D01*
X2881405Y-9629143D01*
X2900452Y-9638667D01*
X2909976Y-9657714D01*
X2909976Y-9762476D01*
X2909976Y-9657714D02*
X2919500Y-9638667D01*
X2938548Y-9629143D01*
X2967119Y-9629143D01*
X2986167Y-9638667D01*
X2995690Y-9657714D01*
X2995690Y-9762476D01*
X3090928Y-9762476D02*
X3090928Y-9629143D01*
X3090928Y-9648190D02*
X3100452Y-9638667D01*
X3119500Y-9629143D01*
X3148071Y-9629143D01*
X3167119Y-9638667D01*
X3176643Y-9657714D01*
X3176643Y-9762476D01*
X3176643Y-9657714D02*
X3186167Y-9638667D01*
X3205214Y-9629143D01*
X3233786Y-9629143D01*
X3252833Y-9638667D01*
X3262357Y-9657714D01*
X3262357Y-9762476D01*
X3652833Y-9552952D02*
X3481405Y-9810095D01*
X3909976Y-9562476D02*
X3929024Y-9562476D01*
X3948071Y-9572000D01*
X3957595Y-9581524D01*
X3967119Y-9600571D01*
X3976643Y-9638667D01*
X3976643Y-9686286D01*
X3967119Y-9724381D01*
X3957595Y-9743429D01*
X3948071Y-9752952D01*
X3929024Y-9762476D01*
X3909976Y-9762476D01*
X3890928Y-9752952D01*
X3881405Y-9743429D01*
X3871881Y-9724381D01*
X3862357Y-9686286D01*
X3862357Y-9638667D01*
X3871881Y-9600571D01*
X3881405Y-9581524D01*
X3890928Y-9572000D01*
X3909976Y-9562476D01*
X4062357Y-9743429D02*
X4071881Y-9752952D01*
X4062357Y-9762476D01*
X4052833Y-9752952D01*
X4062357Y-9743429D01*
X4062357Y-9762476D01*
X4195690Y-9562476D02*
X4214738Y-9562476D01*
X4233786Y-9572000D01*
X4243310Y-9581524D01*
X4252833Y-9600571D01*
X4262357Y-9638667D01*
X4262357Y-9686286D01*
X4252833Y-9724381D01*
X4243310Y-9743429D01*
X4233786Y-9752952D01*
X4214738Y-9762476D01*
X4195690Y-9762476D01*
X4176643Y-9752952D01*
X4167119Y-9743429D01*
X4157595Y-9724381D01*
X4148071Y-9686286D01*
X4148071Y-9638667D01*
X4157595Y-9600571D01*
X4167119Y-9581524D01*
X4176643Y-9572000D01*
X4195690Y-9562476D01*
X4338548Y-9581524D02*
X4348071Y-9572000D01*
X4367119Y-9562476D01*
X4414738Y-9562476D01*
X4433786Y-9572000D01*
X4443310Y-9581524D01*
X4452833Y-9600571D01*
X4452833Y-9619619D01*
X4443310Y-9648190D01*
X4329024Y-9762476D01*
X4452833Y-9762476D01*
X4519500Y-9562476D02*
X4643310Y-9562476D01*
X4576643Y-9638667D01*
X4605214Y-9638667D01*
X4624262Y-9648190D01*
X4633786Y-9657714D01*
X4643310Y-9676762D01*
X4643310Y-9724381D01*
X4633786Y-9743429D01*
X4624262Y-9752952D01*
X4605214Y-9762476D01*
X4548071Y-9762476D01*
X4529024Y-9752952D01*
X4519500Y-9743429D01*
X4814738Y-9562476D02*
X4776643Y-9562476D01*
X4757595Y-9572000D01*
X4748071Y-9581524D01*
X4729024Y-9610095D01*
X4719500Y-9648190D01*
X4719500Y-9724381D01*
X4729024Y-9743429D01*
X4738548Y-9752952D01*
X4757595Y-9762476D01*
X4795690Y-9762476D01*
X4814738Y-9752952D01*
X4824262Y-9743429D01*
X4833786Y-9724381D01*
X4833786Y-9676762D01*
X4824262Y-9657714D01*
X4814738Y-9648190D01*
X4795690Y-9638667D01*
X4757595Y-9638667D01*
X4738548Y-9648190D01*
X4729024Y-9657714D01*
X4719500Y-9676762D01*
X4909976Y-9562476D02*
X4909976Y-9600571D01*
X4986167Y-9562476D02*
X4986167Y-9600571D01*
X5281405Y-9838667D02*
X5271881Y-9829143D01*
X5252833Y-9800571D01*
X5243310Y-9781524D01*
X5233786Y-9752952D01*
X5224262Y-9705333D01*
X5224262Y-9667238D01*
X5233786Y-9619619D01*
X5243310Y-9591048D01*
X5252833Y-9572000D01*
X5271881Y-9543429D01*
X5281405Y-9533905D01*
X5395690Y-9562476D02*
X5414738Y-9562476D01*
X5433786Y-9572000D01*
X5443310Y-9581524D01*
X5452833Y-9600571D01*
X5462357Y-9638667D01*
X5462357Y-9686286D01*
X5452833Y-9724381D01*
X5443310Y-9743429D01*
X5433786Y-9752952D01*
X5414738Y-9762476D01*
X5395690Y-9762476D01*
X5376643Y-9752952D01*
X5367119Y-9743429D01*
X5357595Y-9724381D01*
X5348071Y-9686286D01*
X5348071Y-9638667D01*
X5357595Y-9600571D01*
X5367119Y-9581524D01*
X5376643Y-9572000D01*
X5395690Y-9562476D01*
X5700452Y-9762476D02*
X5700452Y-9562476D01*
X5786167Y-9762476D02*
X5786167Y-9657714D01*
X5776643Y-9638667D01*
X5757595Y-9629143D01*
X5729024Y-9629143D01*
X5709976Y-9638667D01*
X5700452Y-9648190D01*
X5909976Y-9762476D02*
X5890928Y-9752952D01*
X5881405Y-9743429D01*
X5871881Y-9724381D01*
X5871881Y-9667238D01*
X5881405Y-9648190D01*
X5890928Y-9638667D01*
X5909976Y-9629143D01*
X5938548Y-9629143D01*
X5957595Y-9638667D01*
X5967119Y-9648190D01*
X5976643Y-9667238D01*
X5976643Y-9724381D01*
X5967119Y-9743429D01*
X5957595Y-9752952D01*
X5938548Y-9762476D01*
X5909976Y-9762476D01*
X6090928Y-9762476D02*
X6071881Y-9752952D01*
X6062357Y-9733905D01*
X6062357Y-9562476D01*
X6243309Y-9752952D02*
X6224262Y-9762476D01*
X6186167Y-9762476D01*
X6167119Y-9752952D01*
X6157595Y-9733905D01*
X6157595Y-9657714D01*
X6167119Y-9638667D01*
X6186167Y-9629143D01*
X6224262Y-9629143D01*
X6243309Y-9638667D01*
X6252833Y-9657714D01*
X6252833Y-9676762D01*
X6157595Y-9695810D01*
X6329024Y-9752952D02*
X6348071Y-9762476D01*
X6386167Y-9762476D01*
X6405214Y-9752952D01*
X6414738Y-9733905D01*
X6414738Y-9724381D01*
X6405214Y-9705333D01*
X6386167Y-9695810D01*
X6357595Y-9695810D01*
X6338548Y-9686286D01*
X6329024Y-9667238D01*
X6329024Y-9657714D01*
X6338548Y-9638667D01*
X6357595Y-9629143D01*
X6386167Y-9629143D01*
X6405214Y-9638667D01*
X6652833Y-9686286D02*
X6805214Y-9686286D01*
X6729024Y-9762476D02*
X6729024Y-9610095D01*
X7138548Y-9629143D02*
X7138548Y-9762476D01*
X7090928Y-9552952D02*
X7043309Y-9695810D01*
X7167119Y-9695810D01*
X7386167Y-9752952D02*
X7405214Y-9762476D01*
X7443309Y-9762476D01*
X7462357Y-9752952D01*
X7471881Y-9733905D01*
X7471881Y-9724381D01*
X7462357Y-9705333D01*
X7443309Y-9695810D01*
X7414738Y-9695810D01*
X7395690Y-9686286D01*
X7386167Y-9667238D01*
X7386167Y-9657714D01*
X7395690Y-9638667D01*
X7414738Y-9629143D01*
X7443309Y-9629143D01*
X7462357Y-9638667D01*
X7586167Y-9762476D02*
X7567119Y-9752952D01*
X7557595Y-9733905D01*
X7557595Y-9562476D01*
X7690928Y-9762476D02*
X7671881Y-9752952D01*
X7662357Y-9743429D01*
X7652833Y-9724381D01*
X7652833Y-9667238D01*
X7662357Y-9648190D01*
X7671881Y-9638667D01*
X7690928Y-9629143D01*
X7719500Y-9629143D01*
X7738548Y-9638667D01*
X7748071Y-9648190D01*
X7757595Y-9667238D01*
X7757595Y-9724381D01*
X7748071Y-9743429D01*
X7738548Y-9752952D01*
X7719500Y-9762476D01*
X7690928Y-9762476D01*
X7814738Y-9629143D02*
X7890928Y-9629143D01*
X7843309Y-9562476D02*
X7843309Y-9733905D01*
X7852833Y-9752952D01*
X7871881Y-9762476D01*
X7890928Y-9762476D01*
X7948071Y-9752952D02*
X7967119Y-9762476D01*
X8005214Y-9762476D01*
X8024262Y-9752952D01*
X8033786Y-9733905D01*
X8033786Y-9724381D01*
X8024262Y-9705333D01*
X8005214Y-9695810D01*
X7976643Y-9695810D01*
X7957595Y-9686286D01*
X7948071Y-9667238D01*
X7948071Y-9657714D01*
X7957595Y-9638667D01*
X7976643Y-9629143D01*
X8005214Y-9629143D01*
X8024262Y-9638667D01*
X8100452Y-9838667D02*
X8109976Y-9829143D01*
X8129024Y-9800571D01*
X8138548Y-9781524D01*
X8148071Y-9752952D01*
X8157595Y-9705333D01*
X8157595Y-9667238D01*
X8148071Y-9619619D01*
X8138548Y-9591048D01*
X8129024Y-9572000D01*
X8109976Y-9543429D01*
X8100452Y-9533905D01*
D14*
X1633300Y-9859800D02*
X1633300Y-10012200D01*
X1557100Y-9936000D02*
X1709500Y-9936000D01*
D11*
X2071881Y-10026476D02*
X1957595Y-10026476D01*
X2014738Y-10026476D02*
X2014738Y-9826476D01*
X1995690Y-9855048D01*
X1976643Y-9874095D01*
X1957595Y-9883619D01*
X2157595Y-10007429D02*
X2167119Y-10016952D01*
X2157595Y-10026476D01*
X2148071Y-10016952D01*
X2157595Y-10007429D01*
X2157595Y-10026476D01*
X2348071Y-9826476D02*
X2252833Y-9826476D01*
X2243310Y-9921714D01*
X2252833Y-9912190D01*
X2271881Y-9902667D01*
X2319500Y-9902667D01*
X2338548Y-9912190D01*
X2348071Y-9921714D01*
X2357595Y-9940762D01*
X2357595Y-9988381D01*
X2348071Y-10007429D01*
X2338548Y-10016952D01*
X2319500Y-10026476D01*
X2271881Y-10026476D01*
X2252833Y-10016952D01*
X2243310Y-10007429D01*
X2433786Y-9845524D02*
X2443310Y-9836000D01*
X2462357Y-9826476D01*
X2509976Y-9826476D01*
X2529024Y-9836000D01*
X2538548Y-9845524D01*
X2548071Y-9864571D01*
X2548071Y-9883619D01*
X2538548Y-9912190D01*
X2424262Y-10026476D01*
X2548071Y-10026476D01*
X2719500Y-9893143D02*
X2719500Y-10026476D01*
X2671881Y-9816952D02*
X2624262Y-9959810D01*
X2748071Y-9959810D01*
X2824262Y-10026476D02*
X2824262Y-9893143D01*
X2824262Y-9912190D02*
X2833786Y-9902667D01*
X2852833Y-9893143D01*
X2881405Y-9893143D01*
X2900452Y-9902667D01*
X2909976Y-9921714D01*
X2909976Y-10026476D01*
X2909976Y-9921714D02*
X2919500Y-9902667D01*
X2938548Y-9893143D01*
X2967119Y-9893143D01*
X2986167Y-9902667D01*
X2995690Y-9921714D01*
X2995690Y-10026476D01*
X3090928Y-10026476D02*
X3090928Y-9893143D01*
X3090928Y-9912190D02*
X3100452Y-9902667D01*
X3119500Y-9893143D01*
X3148071Y-9893143D01*
X3167119Y-9902667D01*
X3176643Y-9921714D01*
X3176643Y-10026476D01*
X3176643Y-9921714D02*
X3186167Y-9902667D01*
X3205214Y-9893143D01*
X3233786Y-9893143D01*
X3252833Y-9902667D01*
X3262357Y-9921714D01*
X3262357Y-10026476D01*
X3652833Y-9816952D02*
X3481405Y-10074095D01*
X3909976Y-9826476D02*
X3929024Y-9826476D01*
X3948071Y-9836000D01*
X3957595Y-9845524D01*
X3967119Y-9864571D01*
X3976643Y-9902667D01*
X3976643Y-9950286D01*
X3967119Y-9988381D01*
X3957595Y-10007429D01*
X3948071Y-10016952D01*
X3929024Y-10026476D01*
X3909976Y-10026476D01*
X3890928Y-10016952D01*
X3881405Y-10007429D01*
X3871881Y-9988381D01*
X3862357Y-9950286D01*
X3862357Y-9902667D01*
X3871881Y-9864571D01*
X3881405Y-9845524D01*
X3890928Y-9836000D01*
X3909976Y-9826476D01*
X4062357Y-10007429D02*
X4071881Y-10016952D01*
X4062357Y-10026476D01*
X4052833Y-10016952D01*
X4062357Y-10007429D01*
X4062357Y-10026476D01*
X4195690Y-9826476D02*
X4214738Y-9826476D01*
X4233786Y-9836000D01*
X4243310Y-9845524D01*
X4252833Y-9864571D01*
X4262357Y-9902667D01*
X4262357Y-9950286D01*
X4252833Y-9988381D01*
X4243310Y-10007429D01*
X4233786Y-10016952D01*
X4214738Y-10026476D01*
X4195690Y-10026476D01*
X4176643Y-10016952D01*
X4167119Y-10007429D01*
X4157595Y-9988381D01*
X4148071Y-9950286D01*
X4148071Y-9902667D01*
X4157595Y-9864571D01*
X4167119Y-9845524D01*
X4176643Y-9836000D01*
X4195690Y-9826476D01*
X4433786Y-9826476D02*
X4395690Y-9826476D01*
X4376643Y-9836000D01*
X4367119Y-9845524D01*
X4348071Y-9874095D01*
X4338548Y-9912190D01*
X4338548Y-9988381D01*
X4348071Y-10007429D01*
X4357595Y-10016952D01*
X4376643Y-10026476D01*
X4414738Y-10026476D01*
X4433786Y-10016952D01*
X4443310Y-10007429D01*
X4452833Y-9988381D01*
X4452833Y-9940762D01*
X4443310Y-9921714D01*
X4433786Y-9912190D01*
X4414738Y-9902667D01*
X4376643Y-9902667D01*
X4357595Y-9912190D01*
X4348071Y-9921714D01*
X4338548Y-9940762D01*
X4576643Y-9826476D02*
X4595690Y-9826476D01*
X4614738Y-9836000D01*
X4624262Y-9845524D01*
X4633786Y-9864571D01*
X4643310Y-9902667D01*
X4643310Y-9950286D01*
X4633786Y-9988381D01*
X4624262Y-10007429D01*
X4614738Y-10016952D01*
X4595690Y-10026476D01*
X4576643Y-10026476D01*
X4557595Y-10016952D01*
X4548071Y-10007429D01*
X4538548Y-9988381D01*
X4529024Y-9950286D01*
X4529024Y-9902667D01*
X4538548Y-9864571D01*
X4548071Y-9845524D01*
X4557595Y-9836000D01*
X4576643Y-9826476D01*
X4767119Y-9826476D02*
X4786167Y-9826476D01*
X4805214Y-9836000D01*
X4814738Y-9845524D01*
X4824262Y-9864571D01*
X4833786Y-9902667D01*
X4833786Y-9950286D01*
X4824262Y-9988381D01*
X4814738Y-10007429D01*
X4805214Y-10016952D01*
X4786167Y-10026476D01*
X4767119Y-10026476D01*
X4748071Y-10016952D01*
X4738548Y-10007429D01*
X4729024Y-9988381D01*
X4719500Y-9950286D01*
X4719500Y-9902667D01*
X4729024Y-9864571D01*
X4738548Y-9845524D01*
X4748071Y-9836000D01*
X4767119Y-9826476D01*
X4909976Y-9826476D02*
X4909976Y-9864571D01*
X4986167Y-9826476D02*
X4986167Y-9864571D01*
X5281405Y-10102667D02*
X5271881Y-10093143D01*
X5252833Y-10064571D01*
X5243310Y-10045524D01*
X5233786Y-10016952D01*
X5224262Y-9969333D01*
X5224262Y-9931238D01*
X5233786Y-9883619D01*
X5243310Y-9855048D01*
X5252833Y-9836000D01*
X5271881Y-9807429D01*
X5281405Y-9797905D01*
X5338548Y-9826476D02*
X5462357Y-9826476D01*
X5395690Y-9902667D01*
X5424262Y-9902667D01*
X5443310Y-9912190D01*
X5452833Y-9921714D01*
X5462357Y-9940762D01*
X5462357Y-9988381D01*
X5452833Y-10007429D01*
X5443310Y-10016952D01*
X5424262Y-10026476D01*
X5367119Y-10026476D01*
X5348071Y-10016952D01*
X5338548Y-10007429D01*
X5586167Y-9826476D02*
X5605214Y-9826476D01*
X5624262Y-9836000D01*
X5633786Y-9845524D01*
X5643309Y-9864571D01*
X5652833Y-9902667D01*
X5652833Y-9950286D01*
X5643309Y-9988381D01*
X5633786Y-10007429D01*
X5624262Y-10016952D01*
X5605214Y-10026476D01*
X5586167Y-10026476D01*
X5567119Y-10016952D01*
X5557595Y-10007429D01*
X5548071Y-9988381D01*
X5538548Y-9950286D01*
X5538548Y-9902667D01*
X5548071Y-9864571D01*
X5557595Y-9845524D01*
X5567119Y-9836000D01*
X5586167Y-9826476D01*
X5890928Y-10026476D02*
X5890928Y-9826476D01*
X5976643Y-10026476D02*
X5976643Y-9921714D01*
X5967119Y-9902667D01*
X5948071Y-9893143D01*
X5919500Y-9893143D01*
X5900452Y-9902667D01*
X5890928Y-9912190D01*
X6100452Y-10026476D02*
X6081405Y-10016952D01*
X6071881Y-10007429D01*
X6062357Y-9988381D01*
X6062357Y-9931238D01*
X6071881Y-9912190D01*
X6081405Y-9902667D01*
X6100452Y-9893143D01*
X6129024Y-9893143D01*
X6148071Y-9902667D01*
X6157595Y-9912190D01*
X6167119Y-9931238D01*
X6167119Y-9988381D01*
X6157595Y-10007429D01*
X6148071Y-10016952D01*
X6129024Y-10026476D01*
X6100452Y-10026476D01*
X6281405Y-10026476D02*
X6262357Y-10016952D01*
X6252833Y-9997905D01*
X6252833Y-9826476D01*
X6433786Y-10016952D02*
X6414738Y-10026476D01*
X6376643Y-10026476D01*
X6357595Y-10016952D01*
X6348071Y-9997905D01*
X6348071Y-9921714D01*
X6357595Y-9902667D01*
X6376643Y-9893143D01*
X6414738Y-9893143D01*
X6433786Y-9902667D01*
X6443309Y-9921714D01*
X6443309Y-9940762D01*
X6348071Y-9959810D01*
X6519500Y-10016952D02*
X6538548Y-10026476D01*
X6576643Y-10026476D01*
X6595690Y-10016952D01*
X6605214Y-9997905D01*
X6605214Y-9988381D01*
X6595690Y-9969333D01*
X6576643Y-9959810D01*
X6548071Y-9959810D01*
X6529024Y-9950286D01*
X6519500Y-9931238D01*
X6519500Y-9921714D01*
X6529024Y-9902667D01*
X6548071Y-9893143D01*
X6576643Y-9893143D01*
X6595690Y-9902667D01*
X6671881Y-10102667D02*
X6681405Y-10093143D01*
X6700452Y-10064571D01*
X6709976Y-10045524D01*
X6719500Y-10016952D01*
X6729024Y-9969333D01*
X6729024Y-9931238D01*
X6719500Y-9883619D01*
X6709976Y-9855048D01*
X6700452Y-9836000D01*
X6681405Y-9807429D01*
X6671881Y-9797905D01*
M02*
